<svg xmlns="http://www.w3.org/2000/svg" xmlns:xlink="http://www.w3.org/1999/xlink" width="1080" zoomAndPan="magnify" viewBox="0 0 810 310.499991" height="414" preserveAspectRatio="xMidYMid meet" version="1.2"><defs><clipPath id="da680f80f8"><path d="M 0.652344 0 L 809.347656 0 L 809.347656 310 L 0.652344 310 Z M 0.652344 0 "/></clipPath><clipPath id="c1e1b3c3ed"><path d="M 1 0 L 809.347656 0 L 809.347656 310 L 1 310 Z M 1 0 "/></clipPath></defs><g id="fe5d15dba5"><g clip-rule="nonzero" clip-path="url(#da680f80f8)"><path style=" stroke:none;fill-rule:nonzero;fill:#ffffff;fill-opacity:1;" d="M 0.652344 0 L 809.347656 0 L 809.347656 310 L 0.652344 310 Z M 0.652344 0 "/><path style=" stroke:none;fill-rule:nonzero;fill:#ffffff;fill-opacity:1;" d="M 0.652344 0 L 809.347656 0 L 809.347656 310 L 0.652344 310 Z M 0.652344 0 "/></g><g clip-rule="nonzero" clip-path="url(#c1e1b3c3ed)"><path style=" stroke:none;fill-rule:nonzero;fill:#f5f5f5;fill-opacity:1;" d="M 467.675781 554.296875 C 312 554.296875 156.664062 554.296875 1.324219 554.296875 C 1.324219 284.734375 1.324219 15.167969 1.324219 -254.398438 C 270.890625 -254.398438 540.457031 -254.398438 810.023438 -254.398438 C 810.023438 15.167969 810.023438 284.734375 810.023438 554.296875 C 696.019531 554.296875 582.015625 554.296875 467.675781 554.296875 M 132.863281 143.03125 C 143.574219 135.738281 144.253906 113.539062 126.136719 107.820312 C 126.570312 107.539062 126.917969 107.242188 127.316406 107.078125 C 135.242188 103.808594 138.773438 97.640625 138.617188 89.34375 C 138.453125 80.699219 134.171875 74.675781 126.042969 71.679688 C 123.34375 70.683594 120.421875 69.847656 117.578125 69.773438 C 105.800781 69.464844 94.011719 69.46875 82.226562 69.367188 C 79.894531 69.347656 77.566406 69.363281 75.097656 69.363281 C 75.097656 95.8125 75.097656 121.894531 75.097656 148.082031 C 75.6875 148.175781 76.117188 148.304688 76.546875 148.304688 C 89.121094 148.292969 101.691406 148.324219 114.265625 148.234375 C 120.734375 148.1875 127.019531 147.253906 132.863281 143.03125 M 673.628906 248 C 673.628906 251.207031 673.628906 254.414062 673.628906 257.53125 C 694.007812 257.53125 713.929688 257.53125 733.800781 257.53125 C 733.800781 191.417969 733.800781 125.550781 733.800781 59.597656 C 713.726562 59.597656 693.808594 59.597656 673.628906 59.597656 C 673.628906 122.316406 673.628906 184.820312 673.628906 248 M 251.078125 91.65625 C 251.078125 110.480469 251.078125 129.300781 251.078125 148.164062 C 258.574219 148.164062 265.613281 148.164062 273.039062 148.164062 C 273.039062 138.453125 273.039062 128.886719 273.039062 119.320312 C 273.371094 119.128906 273.699219 118.941406 274.03125 118.753906 C 274.867188 119.664062 275.929688 120.453125 276.507812 121.503906 C 280.980469 129.652344 285.328125 137.871094 289.8125 146.011719 C 290.332031 146.949219 291.4375 148.191406 292.292969 148.210938 C 299.863281 148.382812 307.4375 148.3125 315.496094 148.3125 C 309.421875 137.777344 303.644531 127.753906 297.769531 117.566406 C 298.648438 117.238281 299.160156 117.054688 299.667969 116.855469 C 311.625 112.117188 317.421875 100.742188 314.242188 88.257812 C 311.550781 77.675781 302.765625 70.308594 290.90625 69.820312 C 277.902344 69.285156 264.871094 69.539062 251.847656 69.464844 C 251.671875 69.464844 251.492188 69.6875 251.078125 69.960938 C 251.078125 76.867188 251.078125 83.925781 251.078125 91.65625 M 151.691406 128.582031 C 153.976562 134.878906 157.570312 140.308594 163.410156 143.707031 C 175.929688 150.992188 188.953125 151.09375 201.625 144.488281 C 213.414062 138.34375 217.59375 127.5 217.621094 114.742188 C 217.65625 100.824219 217.628906 86.902344 217.628906 72.980469 C 217.628906 71.886719 217.628906 70.789062 217.628906 69.542969 C 210.226562 69.542969 203.101562 69.542969 195.625 69.542969 C 195.625 70.917969 195.625 72.121094 195.625 73.328125 C 195.597656 87.808594 195.722656 102.292969 195.480469 116.769531 C 195.351562 124.328125 190.867188 128.398438 183.566406 128.425781 C 176.140625 128.449219 172.195312 124.605469 171.695312 116.835938 C 171.601562 115.382812 171.566406 113.921875 171.566406 112.460938 C 171.558594 99.328125 171.5625 86.191406 171.5625 73.058594 C 171.5625 71.882812 171.5625 70.707031 171.5625 69.550781 C 163.976562 69.550781 156.941406 69.550781 149.796875 69.550781 C 149.738281 70.269531 149.65625 70.8125 149.65625 71.355469 C 149.65625 86.285156 149.535156 101.21875 149.757812 116.144531 C 149.816406 120.125 150.9375 124.089844 151.691406 128.582031 M 364.027344 90.917969 C 361.289062 89.238281 358.746094 86.980469 355.78125 85.976562 C 343.980469 81.988281 331.355469 87.167969 325.636719 98.597656 C 319.597656 110.667969 319.671875 123.132812 325.671875 135.207031 C 329.867188 143.648438 337.058594 148.382812 346.566406 148.984375 C 354.441406 149.480469 361.238281 146.984375 366.585938 139.863281 C 366.585938 143.121094 366.585938 145.546875 366.585938 148.027344 C 374.015625 148.027344 381.222656 148.027344 388.28125 148.027344 C 388.28125 127.027344 388.28125 106.320312 388.28125 85.636719 C 380.949219 85.636719 373.90625 85.636719 366.503906 85.636719 C 366.503906 88.273438 366.503906 90.753906 366.503906 93.742188 C 365.515625 92.597656 364.945312 91.933594 364.027344 90.917969 M 589.289062 257.78125 C 591.410156 257.78125 593.53125 257.78125 595.742188 257.78125 C 595.742188 210.269531 595.742188 162.980469 595.742188 115.757812 C 575.585938 115.757812 555.679688 115.757812 535.890625 115.757812 C 535.890625 163.222656 535.890625 210.414062 535.890625 257.78125 C 553.625 257.78125 571.125 257.78125 589.289062 257.78125 M 503.421875 98.367188 C 494.949219 84.332031 475.472656 81.738281 462.074219 87.566406 C 448.175781 93.609375 441.480469 109.539062 445.621094 126.261719 C 449.191406 140.671875 462.242188 149.960938 477.609375 149.035156 C 492.835938 148.113281 504.957031 138.675781 506.410156 126.480469 C 499.328125 126.480469 492.261719 126.4375 485.195312 126.53125 C 484.367188 126.542969 483.332031 127.097656 482.765625 127.730469 C 479.726562 131.144531 476.246094 132.285156 472.316406 130.957031 C 468.71875 129.742188 466.695312 126.484375 466.550781 121.257812 C 480.285156 121.257812 494.019531 121.257812 507.816406 121.257812 C 508.644531 113.0625 507.734375 105.632812 503.421875 98.367188 M 633.121094 257.78125 C 643.726562 257.78125 654.335938 257.78125 664.816406 257.78125 C 664.816406 225.835938 664.816406 194.445312 664.816406 163.0625 C 644.648438 163.0625 624.722656 163.0625 604.730469 163.0625 C 604.730469 194.6875 604.730469 226.082031 604.730469 257.78125 C 614.082031 257.78125 623.265625 257.78125 633.121094 257.78125 M 412.089844 70.339844 C 409.652344 70.339844 407.210938 70.339844 404.441406 70.339844 C 404.441406 75.523438 404.441406 80.398438 404.441406 85.519531 C 401.796875 85.519531 399.484375 85.519531 397.015625 85.519531 C 397.015625 91.664062 397.015625 97.558594 397.015625 103.832031 C 399.484375 103.832031 401.882812 103.832031 404.46875 103.832031 C 404.46875 106.546875 404.421875 108.890625 404.476562 111.230469 C 404.621094 117.617188 404.441406 124.035156 405.078125 130.375 C 405.808594 137.625 409.425781 143.242188 416.480469 146.132812 C 423.4375 148.980469 430.691406 148.191406 437.878906 148.292969 C 437.878906 141.835938 437.878906 135.824219 437.878906 129.792969 C 437.382812 129.730469 437.0625 129.660156 436.738281 129.652344 C 426.570312 129.421875 426.570312 129.421875 426.570312 119.113281 C 426.570312 114.019531 426.570312 108.925781 426.570312 103.640625 C 430.632812 103.640625 434.199219 103.640625 437.828125 103.640625 C 437.828125 97.546875 437.828125 91.65625 437.828125 85.441406 C 434.035156 85.441406 430.398438 85.441406 426.480469 85.441406 C 426.480469 80.234375 426.480469 75.351562 426.480469 70.339844 C 421.707031 70.339844 417.234375 70.339844 412.089844 70.339844 M 328.324219 207.800781 C 330.292969 209.03125 332.964844 209.820312 334.078125 211.589844 C 336.339844 215.199219 339.273438 215.089844 342.660156 214.519531 C 339.375 204.835938 327.980469 199.761719 317.140625 203.117188 C 306.042969 206.558594 300.011719 218.472656 303.453125 230.152344 C 306.664062 241.039062 317.96875 247.214844 329.308594 244.273438 C 339.0625 241.742188 346.019531 231.144531 343.894531 222.21875 C 336.5 222.21875 329.136719 222.21875 321.753906 222.21875 C 321.753906 223.644531 321.753906 224.847656 321.753906 226.453125 C 327.308594 226.453125 332.746094 226.453125 338.195312 226.453125 C 337.695312 233.03125 333.847656 237.933594 328.269531 239.453125 C 321.511719 241.292969 314.417969 239.023438 311.023438 233.492188 C 307.058594 227.023438 306.96875 220.175781 310.988281 213.761719 C 314.863281 207.578125 320.941406 206.238281 328.324219 207.800781 M 440.652344 239.769531 C 440.652344 241.316406 440.652344 242.859375 440.652344 244.546875 C 442.644531 244.546875 444.285156 244.546875 446.082031 244.546875 C 446.082031 229.675781 446.082031 214.902344 446.082031 200.074219 C 444.3125 200.074219 442.671875 200.074219 440.707031 200.074219 C 440.707031 205.621094 440.707031 211.039062 440.707031 216.738281 C 432.59375 209.5 422.847656 209.335938 416.925781 216.050781 C 410.828125 222.964844 411.554688 235.355469 418.296875 241.433594 C 423.761719 246.363281 434.550781 246.992188 440.652344 239.769531 M 405.574219 212.667969 C 403.871094 212.164062 402.164062 211.660156 400.230469 211.085938 C 400.003906 213.347656 399.855469 214.796875 399.683594 216.511719 C 392.042969 209.679688 382.84375 209.371094 376.765625 215.417969 C 370.578125 221.582031 370.304688 233.359375 376.191406 240.082031 C 382.109375 246.84375 390.75 246.734375 399.78125 239.664062 C 399.914062 241.375 400.042969 242.980469 400.160156 244.46875 C 402.128906 244.46875 403.761719 244.46875 405.585938 244.46875 C 405.585938 233.914062 405.585938 223.597656 405.574219 212.667969 M 267.183594 230.15625 C 271.757812 230.15625 276.332031 230.15625 280.863281 230.15625 C 282.203125 219.984375 277.109375 212.421875 268.371094 211.273438 C 258.425781 209.964844 250.640625 215.347656 249.34375 224.433594 C 247.824219 235.078125 253.347656 243.726562 262.457031 244.960938 C 271.449219 246.175781 279.128906 241.660156 280.09375 234.570312 C 277.101562 234.035156 274.757812 234.285156 272.773438 237.351562 C 270.601562 240.710938 265.230469 241.371094 261.074219 239.636719 C 257.027344 237.945312 254.914062 234.648438 255.078125 230.15625 C 258.886719 230.15625 262.699219 230.15625 267.183594 230.15625 M 459.484375 232.121094 C 459.097656 230.761719 459.375 230.015625 461.027344 230.132812 C 462.703125 230.25 464.394531 230.160156 466.078125 230.160156 C 472.539062 230.160156 479.003906 230.160156 485.390625 230.160156 C 486.785156 220.105469 481.394531 212.3125 472.691406 211.257812 C 462.203125 209.984375 454.5 215.886719 453.578125 225.898438 C 452.625 236.265625 458.769531 244.40625 468.027344 245.042969 C 476.890625 245.652344 484.097656 241.039062 484.4375 233.851562 C 482.359375 234.472656 479.613281 234.445312 478.761719 235.699219 C 475.933594 239.867188 472.195312 240.964844 467.679688 240.21875 C 463.433594 239.515625 460.671875 236.933594 459.484375 232.121094 M 110.480469 235.207031 C 110.84375 234.328125 111.203125 233.453125 111.617188 232.449219 C 108.210938 232.285156 105.503906 231.773438 103.222656 235.234375 C 100.085938 239.996094 94.804688 240.878906 89.394531 239.917969 C 83.132812 238.800781 79.148438 234.890625 77.652344 228.832031 C 75.972656 222.035156 76.824219 215.578125 82.285156 210.570312 C 88.164062 205.183594 98.652344 205.535156 103.042969 211.726562 C 105.585938 215.308594 108.292969 214.914062 111.648438 214.484375 C 107.472656 205.058594 99.046875 200.742188 88.441406 202.441406 C 79.425781 203.886719 72.386719 211.488281 71.453125 220.789062 C 70.394531 231.277344 75.671875 240.347656 84.753906 243.65625 C 94.464844 247.199219 104.492188 244.035156 110.480469 235.207031 M 146.996094 216.226562 C 146.335938 215.617188 145.722656 214.949219 145.015625 214.40625 C 139.804688 210.386719 131.441406 209.964844 125.640625 213.402344 C 120.007812 216.734375 117.003906 223.628906 118.019531 230.871094 C 119.003906 237.914062 123.445312 243.011719 130.050781 244.691406 C 137.09375 246.484375 144.613281 243.726562 148.453125 237.945312 C 152.652344 231.625 152.195312 223.054688 146.996094 216.226562 M 158.265625 225.761719 C 158.285156 228.003906 158.222656 230.25 158.332031 232.488281 C 158.699219 240 163.84375 245.292969 171.328125 244.902344 C 175.042969 244.710938 178.675781 242.886719 182.324219 241.804688 C 182.382812 242.265625 182.535156 243.433594 182.660156 244.441406 C 184.542969 244.441406 186.167969 244.441406 187.671875 244.441406 C 187.671875 233.367188 187.671875 222.554688 187.671875 211.792969 C 185.804688 211.792969 184.191406 211.792969 182.40625 211.792969 C 182.40625 214.496094 182.453125 216.949219 182.398438 219.402344 C 182.296875 223.882812 182.402344 228.386719 181.929688 232.828125 C 181.429688 237.492188 178.136719 240.101562 173.453125 240.265625 C 168.421875 240.441406 165.128906 238.140625 164.09375 233.460938 C 163.710938 231.734375 163.742188 229.902344 163.730469 228.117188 C 163.6875 222.671875 163.714844 217.226562 163.714844 211.765625 C 161.660156 211.765625 160.042969 211.765625 158.476562 211.765625 C 158.378906 212.203125 158.285156 212.421875 158.285156 212.640625 C 158.273438 216.789062 158.269531 220.941406 158.265625 225.761719 M 232.464844 230.992188 C 232.992188 231.175781 233.527344 231.34375 234.050781 231.542969 C 236.242188 232.363281 238.355469 233.328125 237.878906 236.238281 C 237.425781 239.015625 235.355469 240.019531 232.835938 240.332031 C 227.890625 240.949219 225.210938 239.457031 223.25 235.011719 C 221.488281 235.011719 219.71875 235.011719 217.925781 235.011719 C 219.117188 242.742188 227.082031 247.03125 235.609375 244.652344 C 240.332031 243.335938 243.203125 240.140625 243.335938 236.050781 C 243.472656 231.820312 241.367188 229.167969 236.347656 227.398438 C 233.289062 226.320312 230.160156 225.441406 227.132812 224.289062 C 225.109375 223.523438 223.324219 221.886719 224.234375 219.710938 C 224.890625 218.15625 226.753906 216.511719 228.390625 216.078125 C 233.082031 214.832031 235.308594 216.261719 238.050781 221.226562 C 239.753906 221.226562 241.398438 221.226562 243.082031 221.226562 C 242.757812 217.285156 241.085938 214.320312 237.695312 212.667969 C 233.109375 210.433594 228.359375 210.429688 223.726562 212.582031 C 220.410156 214.125 218.433594 216.78125 218.476562 220.523438 C 218.519531 224.277344 220.5625 226.882812 223.980469 228.246094 C 226.570312 229.28125 229.28125 230.003906 232.464844 230.992188 M 498.597656 225.378906 C 499.257812 223.394531 499.335938 220.699219 500.703125 219.585938 C 502.953125 217.757812 506.039062 216.953125 508.984375 215.621094 C 508.984375 214.5625 508.984375 212.929688 508.984375 211.226562 C 504.671875 210.703125 501.632812 212.78125 498.691406 215.96875 C 498.558594 214.238281 498.46875 213.066406 498.375 211.824219 C 496.515625 211.824219 494.816406 211.824219 493.113281 211.824219 C 493.113281 222.847656 493.113281 233.585938 493.113281 244.429688 C 494.980469 244.429688 496.683594 244.429688 498.566406 244.429688 C 498.566406 238.105469 498.566406 232.050781 498.597656 225.378906 M 197.144531 236.53125 C 197.144531 239.1875 197.144531 241.84375 197.144531 244.476562 C 199.207031 244.476562 200.839844 244.476562 202.777344 244.476562 C 202.777344 237.875 202.640625 231.492188 202.820312 225.121094 C 202.96875 219.8125 205.746094 217.128906 210.949219 216.703125 C 211.691406 216.644531 212.433594 216.570312 213.203125 216.5 C 213.203125 214.640625 213.203125 213.003906 213.203125 211.265625 C 208.847656 210.609375 205.800781 212.871094 202.890625 215.863281 C 202.714844 214.113281 202.597656 212.933594 202.484375 211.777344 C 200.601562 211.777344 198.984375 211.777344 197.144531 211.777344 C 197.144531 219.957031 197.144531 227.910156 197.144531 236.53125 M 367.761719 212.117188 C 366.414062 211.894531 364.832031 211.117188 363.761719 211.5625 C 361.410156 212.539062 359.320312 214.132812 357.183594 215.4375 C 357.089844 214.3125 356.984375 213.019531 356.886719 211.78125 C 354.992188 211.78125 353.378906 211.78125 351.769531 211.78125 C 351.769531 222.847656 351.769531 233.679688 351.769531 244.480469 C 353.605469 244.480469 355.238281 244.480469 357.132812 244.480469 C 357.132812 238 357.019531 231.730469 357.167969 225.46875 C 357.296875 219.824219 360.101562 217.074219 365.664062 216.691406 C 366.300781 216.648438 366.933594 216.578125 367.769531 216.503906 C 367.769531 215.09375 367.769531 213.875 367.761719 212.117188 Z M 367.761719 212.117188 "/></g><path style=" stroke:none;fill-rule:nonzero;fill:#030303;fill-opacity:1;" d="M 132.65625 143.160156 C 127.019531 147.253906 120.734375 148.1875 114.265625 148.234375 C 101.691406 148.324219 89.121094 148.292969 76.546875 148.304688 C 76.117188 148.304688 75.6875 148.175781 75.097656 148.082031 C 75.097656 121.894531 75.097656 95.8125 75.097656 69.363281 C 77.566406 69.363281 79.894531 69.347656 82.226562 69.367188 C 94.011719 69.46875 105.800781 69.464844 117.578125 69.773438 C 120.421875 69.847656 123.34375 70.683594 126.042969 71.679688 C 134.171875 74.675781 138.453125 80.699219 138.617188 89.34375 C 138.773438 97.640625 135.242188 103.808594 127.316406 107.078125 C 126.917969 107.242188 126.570312 107.539062 126.136719 107.820312 C 144.253906 113.539062 143.574219 135.738281 132.65625 143.160156 M 111.199219 130.460938 C 116.074219 129.699219 118.039062 127.609375 117.902344 123.332031 C 117.773438 119.265625 115.265625 116.59375 110.804688 116.371094 C 106.261719 116.144531 101.695312 116.320312 97.097656 116.320312 C 97.097656 121.152344 97.097656 125.695312 97.097656 130.488281 C 101.683594 130.488281 106.136719 130.488281 111.199219 130.460938 M 98.285156 86.832031 C 97.84375 87.207031 97.03125 87.578125 97.023438 87.960938 C 96.929688 92.164062 96.964844 96.371094 96.964844 100.660156 C 101.5 100.660156 105.640625 100.867188 109.753906 100.601562 C 114.035156 100.324219 116.195312 97.863281 116.226562 93.933594 C 116.257812 89.878906 114.304688 87.503906 109.988281 87.085938 C 106.324219 86.734375 102.609375 86.894531 98.285156 86.832031 Z M 98.285156 86.832031 "/><path style=" stroke:none;fill-rule:nonzero;fill:#dc173e;fill-opacity:1;" d="M 673.628906 247.664062 C 673.628906 184.820312 673.628906 122.316406 673.628906 59.597656 C 693.808594 59.597656 713.726562 59.597656 733.800781 59.597656 C 733.800781 125.550781 733.800781 191.417969 733.800781 257.53125 C 713.929688 257.53125 694.007812 257.53125 673.628906 257.53125 C 673.628906 254.414062 673.628906 251.207031 673.628906 247.664062 M 682.195312 87.613281 C 682.195312 141.363281 682.195312 195.117188 682.195312 248.925781 C 696.742188 248.925781 710.851562 248.925781 725.136719 248.925781 C 725.136719 188.625 725.136719 128.492188 725.136719 68.207031 C 710.828125 68.207031 696.652344 68.207031 682.195312 68.207031 C 682.195312 74.625 682.195312 80.78125 682.195312 87.613281 Z M 682.195312 87.613281 "/><path style=" stroke:none;fill-rule:nonzero;fill:#030303;fill-opacity:1;" d="M 251.078125 91.320312 C 251.078125 83.925781 251.078125 76.867188 251.078125 69.960938 C 251.492188 69.6875 251.671875 69.464844 251.847656 69.464844 C 264.871094 69.539062 277.902344 69.285156 290.90625 69.820312 C 302.765625 70.308594 311.550781 77.675781 314.242188 88.257812 C 317.421875 100.742188 311.625 112.117188 299.667969 116.855469 C 299.160156 117.054688 298.648438 117.238281 297.769531 117.566406 C 303.644531 127.753906 309.421875 137.777344 315.496094 148.3125 C 307.4375 148.3125 299.863281 148.382812 292.292969 148.210938 C 291.4375 148.191406 290.332031 146.949219 289.8125 146.011719 C 285.328125 137.871094 280.980469 129.652344 276.507812 121.503906 C 275.929688 120.453125 274.867188 119.664062 274.03125 118.753906 C 273.699219 118.941406 273.371094 119.128906 273.039062 119.320312 C 273.039062 128.886719 273.039062 138.453125 273.039062 148.164062 C 265.613281 148.164062 258.574219 148.164062 251.078125 148.164062 C 251.078125 129.300781 251.078125 110.480469 251.078125 91.320312 M 286.847656 88.0625 C 282.289062 88.0625 277.734375 88.0625 273.09375 88.0625 C 273.09375 93.429688 273.09375 98.652344 273.09375 103.929688 C 273.523438 104.027344 273.832031 104.15625 274.144531 104.15625 C 277.511719 104.164062 280.882812 104.214844 284.25 104.128906 C 289.007812 104.011719 291.765625 101.992188 292.488281 98.253906 C 293.441406 93.308594 291.898438 90.269531 286.847656 88.0625 Z M 286.847656 88.0625 "/><path style=" stroke:none;fill-rule:nonzero;fill:#040404;fill-opacity:1;" d="M 151.628906 128.324219 C 150.9375 124.089844 149.816406 120.125 149.757812 116.144531 C 149.535156 101.21875 149.65625 86.285156 149.65625 71.355469 C 149.65625 70.8125 149.738281 70.269531 149.796875 69.550781 C 156.941406 69.550781 163.976562 69.550781 171.5625 69.550781 C 171.5625 70.707031 171.5625 71.882812 171.5625 73.058594 C 171.5625 86.191406 171.558594 99.328125 171.566406 112.460938 C 171.566406 113.921875 171.601562 115.382812 171.695312 116.835938 C 172.195312 124.605469 176.140625 128.449219 183.566406 128.425781 C 190.867188 128.398438 195.351562 124.328125 195.480469 116.769531 C 195.722656 102.292969 195.597656 87.808594 195.625 73.328125 C 195.625 72.121094 195.625 70.917969 195.625 69.542969 C 203.101562 69.542969 210.226562 69.542969 217.628906 69.542969 C 217.628906 70.789062 217.628906 71.886719 217.628906 72.980469 C 217.628906 86.902344 217.65625 100.824219 217.621094 114.742188 C 217.59375 127.5 213.414062 138.34375 201.625 144.488281 C 188.953125 151.09375 175.929688 150.992188 163.410156 143.707031 C 157.570312 140.308594 153.976562 134.878906 151.628906 128.324219 Z M 151.628906 128.324219 "/><path style=" stroke:none;fill-rule:nonzero;fill:#040404;fill-opacity:1;" d="M 364.203125 91.097656 C 364.945312 91.933594 365.515625 92.597656 366.503906 93.742188 C 366.503906 90.753906 366.503906 88.273438 366.503906 85.636719 C 373.90625 85.636719 380.949219 85.636719 388.28125 85.636719 C 388.28125 106.320312 388.28125 127.027344 388.28125 148.027344 C 381.222656 148.027344 374.015625 148.027344 366.585938 148.027344 C 366.585938 145.546875 366.585938 143.121094 366.585938 139.863281 C 361.238281 146.984375 354.441406 149.480469 346.566406 148.984375 C 337.058594 148.382812 329.867188 143.648438 325.671875 135.207031 C 319.671875 123.132812 319.597656 110.667969 325.636719 98.597656 C 331.355469 87.167969 343.980469 81.988281 355.78125 85.976562 C 358.746094 86.980469 361.289062 89.238281 364.203125 91.097656 M 366.578125 117.808594 C 366.550781 116.6875 366.617188 115.558594 366.480469 114.453125 C 365.78125 108.867188 362.003906 104.714844 357.082031 104.0625 C 351.429688 103.304688 346.851562 105.773438 344.890625 110.757812 C 343.261719 114.894531 343.257812 119.113281 345.03125 123.183594 C 346.890625 127.460938 350.222656 129.792969 354.988281 129.847656 C 361.449219 129.921875 365.457031 125.957031 366.578125 117.808594 Z M 366.578125 117.808594 "/><path style=" stroke:none;fill-rule:nonzero;fill:#dc183f;fill-opacity:1;" d="M 588.953125 257.78125 C 571.125 257.78125 553.625 257.78125 535.890625 257.78125 C 535.890625 210.414062 535.890625 163.222656 535.890625 115.757812 C 555.679688 115.757812 575.585938 115.757812 595.742188 115.757812 C 595.742188 162.980469 595.742188 210.269531 595.742188 257.78125 C 593.53125 257.78125 591.410156 257.78125 588.953125 257.78125 M 544.296875 186.003906 C 544.296875 206.945312 544.296875 227.890625 544.296875 248.941406 C 558.832031 248.941406 572.929688 248.941406 587.1875 248.941406 C 587.1875 207.332031 587.1875 165.875 587.1875 124.433594 C 572.785156 124.433594 558.609375 124.433594 544.296875 124.433594 C 544.296875 144.929688 544.296875 165.128906 544.296875 186.003906 Z M 544.296875 186.003906 "/><path style=" stroke:none;fill-rule:nonzero;fill:#030303;fill-opacity:1;" d="M 503.550781 98.578125 C 507.734375 105.632812 508.644531 113.0625 507.816406 121.257812 C 494.019531 121.257812 480.285156 121.257812 466.550781 121.257812 C 466.695312 126.484375 468.71875 129.742188 472.316406 130.957031 C 476.246094 132.285156 479.726562 131.144531 482.765625 127.730469 C 483.332031 127.097656 484.367188 126.542969 485.195312 126.53125 C 492.261719 126.4375 499.328125 126.480469 506.410156 126.480469 C 504.957031 138.675781 492.835938 148.113281 477.609375 149.035156 C 462.242188 149.960938 449.191406 140.671875 445.621094 126.261719 C 441.480469 109.539062 448.175781 93.609375 462.074219 87.566406 C 475.472656 81.738281 494.949219 84.332031 503.550781 98.578125 M 485.421875 108.375 C 483.707031 103.675781 479.820312 101.441406 474.601562 102.160156 C 470.089844 102.78125 467.175781 105.941406 466.789062 110.753906 C 472.492188 110.753906 478.1875 110.726562 483.878906 110.773438 C 485.292969 110.785156 486.058594 110.453125 485.421875 108.375 Z M 485.421875 108.375 "/><path style=" stroke:none;fill-rule:nonzero;fill:#dc183f;fill-opacity:1;" d="M 632.78125 257.78125 C 623.265625 257.78125 614.082031 257.78125 604.730469 257.78125 C 604.730469 226.082031 604.730469 194.6875 604.730469 163.0625 C 624.722656 163.0625 644.648438 163.0625 664.816406 163.0625 C 664.816406 194.445312 664.816406 225.835938 664.816406 257.78125 C 654.335938 257.78125 643.726562 257.78125 632.78125 257.78125 M 656.363281 225.089844 C 656.363281 207.296875 656.363281 189.503906 656.363281 171.746094 C 641.765625 171.746094 627.582031 171.746094 613.453125 171.746094 C 613.453125 197.613281 613.453125 223.25 613.453125 248.851562 C 627.839844 248.851562 642.015625 248.851562 656.363281 248.851562 C 656.363281 241 656.363281 233.382812 656.363281 225.089844 Z M 656.363281 225.089844 "/><path style=" stroke:none;fill-rule:nonzero;fill:#020202;fill-opacity:1;" d="M 412.425781 70.339844 C 417.234375 70.339844 421.707031 70.339844 426.480469 70.339844 C 426.480469 75.351562 426.480469 80.234375 426.480469 85.441406 C 430.398438 85.441406 434.035156 85.441406 437.828125 85.441406 C 437.828125 91.65625 437.828125 97.546875 437.828125 103.640625 C 434.199219 103.640625 430.632812 103.640625 426.570312 103.640625 C 426.570312 108.925781 426.570312 114.019531 426.570312 119.113281 C 426.570312 129.421875 426.570312 129.421875 436.738281 129.652344 C 437.0625 129.660156 437.382812 129.730469 437.878906 129.792969 C 437.878906 135.824219 437.878906 141.835938 437.878906 148.292969 C 430.691406 148.191406 423.4375 148.980469 416.480469 146.132812 C 409.425781 143.242188 405.808594 137.625 405.078125 130.375 C 404.441406 124.035156 404.621094 117.617188 404.476562 111.230469 C 404.421875 108.890625 404.46875 106.546875 404.46875 103.832031 C 401.882812 103.832031 399.484375 103.832031 397.015625 103.832031 C 397.015625 97.558594 397.015625 91.664062 397.015625 85.519531 C 399.484375 85.519531 401.796875 85.519531 404.441406 85.519531 C 404.441406 80.398438 404.441406 75.523438 404.441406 70.339844 C 407.210938 70.339844 409.652344 70.339844 412.425781 70.339844 Z M 412.425781 70.339844 "/><path style=" stroke:none;fill-rule:nonzero;fill:#070707;fill-opacity:1;" d="M 328.066406 207.703125 C 320.941406 206.238281 314.863281 207.578125 310.988281 213.761719 C 306.96875 220.175781 307.058594 227.023438 311.023438 233.492188 C 314.417969 239.023438 321.511719 241.292969 328.269531 239.453125 C 333.847656 237.933594 337.695312 233.03125 338.195312 226.453125 C 332.746094 226.453125 327.308594 226.453125 321.753906 226.453125 C 321.753906 224.847656 321.753906 223.644531 321.753906 222.21875 C 329.136719 222.21875 336.5 222.21875 343.894531 222.21875 C 346.019531 231.144531 339.0625 241.742188 329.308594 244.273438 C 317.96875 247.214844 306.664062 241.039062 303.453125 230.152344 C 300.011719 218.472656 306.042969 206.558594 317.140625 203.117188 C 327.980469 199.761719 339.375 204.835938 342.660156 214.519531 C 339.273438 215.089844 336.339844 215.199219 334.078125 211.589844 C 332.964844 209.820312 330.292969 209.03125 328.066406 207.703125 Z M 328.066406 207.703125 "/><path style=" stroke:none;fill-rule:nonzero;fill:#060606;fill-opacity:1;" d="M 440.402344 239.640625 C 434.550781 246.992188 423.761719 246.363281 418.296875 241.433594 C 411.554688 235.355469 410.828125 222.964844 416.925781 216.050781 C 422.847656 209.335938 432.59375 209.5 440.707031 216.738281 C 440.707031 211.039062 440.707031 205.621094 440.707031 200.074219 C 442.671875 200.074219 444.3125 200.074219 446.082031 200.074219 C 446.082031 214.902344 446.082031 229.675781 446.082031 244.546875 C 444.285156 244.546875 442.644531 244.546875 440.652344 244.546875 C 440.652344 242.859375 440.652344 241.316406 440.402344 239.640625 M 418.488281 226.078125 C 418.492188 227.421875 418.378906 228.773438 418.519531 230.101562 C 419.292969 237.523438 426.152344 242.054688 433.042969 239.742188 C 438.480469 237.917969 441.480469 232.484375 440.628906 225.992188 C 439.894531 220.359375 435.851562 216.296875 430.613281 215.925781 C 424.277344 215.476562 420.375 218.570312 418.488281 226.078125 Z M 418.488281 226.078125 "/><path style=" stroke:none;fill-rule:nonzero;fill:#0a0a0a;fill-opacity:1;" d="M 405.582031 212.972656 C 405.585938 223.597656 405.585938 233.914062 405.585938 244.46875 C 403.761719 244.46875 402.128906 244.46875 400.160156 244.46875 C 400.042969 242.980469 399.914062 241.375 399.78125 239.664062 C 390.75 246.734375 382.109375 246.84375 376.191406 240.082031 C 370.304688 233.359375 370.578125 221.582031 376.765625 215.417969 C 382.84375 209.371094 392.042969 209.679688 399.683594 216.511719 C 399.855469 214.796875 400.003906 213.347656 400.230469 211.085938 C 402.164062 211.660156 403.871094 212.164062 405.582031 212.972656 M 382.367188 217.816406 C 381.632812 218.503906 380.769531 219.089844 380.195312 219.886719 C 377.050781 224.273438 376.800781 229.058594 378.832031 233.894531 C 380.417969 237.675781 383.457031 239.859375 387.601562 240.238281 C 392.554688 240.691406 396.816406 238.234375 398.78125 233.914062 C 400.980469 229.074219 399.917969 222.28125 396.425781 218.878906 C 392.910156 215.449219 387.992188 214.957031 382.367188 217.816406 Z M 382.367188 217.816406 "/><path style=" stroke:none;fill-rule:nonzero;fill:#090909;fill-opacity:1;" d="M 266.847656 230.15625 C 262.699219 230.15625 258.886719 230.15625 255.078125 230.15625 C 254.914062 234.648438 257.027344 237.945312 261.074219 239.636719 C 265.230469 241.371094 270.601562 240.710938 272.773438 237.351562 C 274.757812 234.285156 277.101562 234.035156 280.09375 234.574219 C 279.128906 241.660156 271.449219 246.175781 262.457031 244.960938 C 253.347656 243.726562 247.824219 235.078125 249.34375 224.433594 C 250.640625 215.347656 258.425781 209.964844 268.371094 211.273438 C 277.109375 212.421875 282.203125 219.984375 280.863281 230.15625 C 276.332031 230.15625 271.757812 230.15625 266.847656 230.15625 M 254.875 224.757812 C 255.144531 225.035156 255.410156 225.5625 255.683594 225.5625 C 262.273438 225.609375 268.867188 225.597656 275.570312 225.597656 C 275.445312 221.757812 274.03125 219.003906 270.96875 217.203125 C 264.445312 213.371094 257.226562 216.539062 254.875 224.757812 Z M 254.875 224.757812 "/><path style=" stroke:none;fill-rule:nonzero;fill:#0a0a0a;fill-opacity:1;" d="M 459.527344 232.410156 C 460.671875 236.933594 463.433594 239.515625 467.679688 240.21875 C 472.195312 240.964844 475.933594 239.867188 478.761719 235.699219 C 479.613281 234.445312 482.359375 234.472656 484.4375 233.851562 C 484.097656 241.039062 476.890625 245.652344 468.027344 245.042969 C 458.769531 244.40625 452.625 236.265625 453.578125 225.898438 C 454.5 215.886719 462.203125 209.984375 472.691406 211.257812 C 481.394531 212.3125 486.785156 220.105469 485.390625 230.160156 C 479.003906 230.160156 472.539062 230.160156 466.078125 230.160156 C 464.394531 230.160156 462.703125 230.25 461.027344 230.132812 C 459.375 230.015625 459.097656 230.761719 459.527344 232.410156 M 478.007812 225.636719 C 480.972656 225.824219 479.921875 223.761719 479.585938 222.484375 C 478.351562 217.777344 473.507812 215.144531 467.820312 215.917969 C 463.007812 216.574219 459.769531 220.28125 459.59375 225.636719 C 465.519531 225.636719 471.441406 225.636719 478.007812 225.636719 Z M 478.007812 225.636719 "/><path style=" stroke:none;fill-rule:nonzero;fill:#090909;fill-opacity:1;" d="M 110.355469 235.414062 C 104.492188 244.035156 94.464844 247.199219 84.753906 243.65625 C 75.671875 240.347656 70.394531 231.277344 71.453125 220.789062 C 72.386719 211.488281 79.425781 203.886719 88.441406 202.441406 C 99.046875 200.742188 107.472656 205.058594 111.648438 214.484375 C 108.292969 214.914062 105.585938 215.308594 103.042969 211.726562 C 98.652344 205.535156 88.164062 205.183594 82.285156 210.570312 C 76.824219 215.578125 75.972656 222.035156 77.652344 228.832031 C 79.148438 234.890625 83.132812 238.800781 89.394531 239.917969 C 94.804688 240.878906 100.085938 239.996094 103.222656 235.234375 C 105.503906 231.773438 108.210938 232.285156 111.617188 232.449219 C 111.203125 233.453125 110.84375 234.328125 110.355469 235.414062 Z M 110.355469 235.414062 "/><path style=" stroke:none;fill-rule:nonzero;fill:#070707;fill-opacity:1;" d="M 147.15625 216.402344 C 152.195312 223.054688 152.652344 231.625 148.453125 237.945312 C 144.613281 243.726562 137.09375 246.484375 130.050781 244.691406 C 123.445312 243.011719 119.003906 237.914062 118.019531 230.871094 C 117.003906 223.628906 120.007812 216.734375 125.640625 213.402344 C 131.441406 209.964844 139.804688 210.386719 145.015625 214.40625 C 145.722656 214.949219 146.335938 215.617188 147.15625 216.402344 M 141.816406 237.582031 C 146.125 233.402344 146.542969 228.28125 144.800781 223 C 142.382812 215.683594 132.761719 213.375 127.152344 218.546875 C 122.742188 222.609375 122.191406 231.5625 126.046875 236.484375 C 129.550781 240.960938 135.714844 241.539062 141.816406 237.582031 Z M 141.816406 237.582031 "/><path style=" stroke:none;fill-rule:nonzero;fill:#090909;fill-opacity:1;" d="M 158.265625 225.425781 C 158.269531 220.941406 158.273438 216.789062 158.285156 212.640625 C 158.285156 212.421875 158.378906 212.203125 158.476562 211.765625 C 160.042969 211.765625 161.660156 211.765625 163.714844 211.765625 C 163.714844 217.226562 163.6875 222.671875 163.730469 228.117188 C 163.742188 229.902344 163.710938 231.734375 164.09375 233.460938 C 165.128906 238.140625 168.421875 240.441406 173.453125 240.265625 C 178.136719 240.101562 181.429688 237.492188 181.929688 232.828125 C 182.402344 228.386719 182.296875 223.882812 182.398438 219.402344 C 182.453125 216.949219 182.40625 214.496094 182.40625 211.792969 C 184.191406 211.792969 185.804688 211.792969 187.671875 211.792969 C 187.671875 222.554688 187.671875 233.367188 187.671875 244.441406 C 186.167969 244.441406 184.542969 244.441406 182.660156 244.441406 C 182.535156 243.433594 182.382812 242.265625 182.324219 241.804688 C 178.675781 242.886719 175.042969 244.710938 171.328125 244.902344 C 163.84375 245.292969 158.699219 240 158.332031 232.488281 C 158.222656 230.25 158.285156 228.003906 158.265625 225.425781 Z M 158.265625 225.425781 "/><path style=" stroke:none;fill-rule:nonzero;fill:#090909;fill-opacity:1;" d="M 232.203125 230.929688 C 229.28125 230.003906 226.570312 229.28125 223.980469 228.246094 C 220.5625 226.882812 218.519531 224.277344 218.476562 220.523438 C 218.433594 216.78125 220.410156 214.125 223.726562 212.582031 C 228.359375 210.429688 233.109375 210.433594 237.695312 212.667969 C 241.085938 214.320312 242.757812 217.285156 243.082031 221.226562 C 241.398438 221.226562 239.753906 221.226562 238.050781 221.226562 C 235.308594 216.261719 233.082031 214.832031 228.390625 216.078125 C 226.753906 216.511719 224.890625 218.15625 224.234375 219.710938 C 223.324219 221.886719 225.109375 223.523438 227.132812 224.289062 C 230.160156 225.441406 233.289062 226.320312 236.347656 227.398438 C 241.367188 229.167969 243.472656 231.820312 243.335938 236.050781 C 243.203125 240.140625 240.332031 243.335938 235.609375 244.652344 C 227.082031 247.03125 219.117188 242.742188 217.925781 235.011719 C 219.71875 235.011719 221.488281 235.011719 223.25 235.011719 C 225.210938 239.457031 227.890625 240.949219 232.835938 240.332031 C 235.355469 240.019531 237.425781 239.015625 237.878906 236.238281 C 238.355469 233.328125 236.242188 232.363281 234.050781 231.542969 C 233.527344 231.34375 232.992188 231.175781 232.203125 230.929688 Z M 232.203125 230.929688 "/><path style=" stroke:none;fill-rule:nonzero;fill:#0a0a0a;fill-opacity:1;" d="M 498.582031 225.6875 C 498.566406 232.050781 498.566406 238.105469 498.566406 244.429688 C 496.683594 244.429688 494.980469 244.429688 493.113281 244.429688 C 493.113281 233.585938 493.113281 222.847656 493.113281 211.824219 C 494.816406 211.824219 496.515625 211.824219 498.375 211.824219 C 498.46875 213.066406 498.558594 214.238281 498.691406 215.96875 C 501.632812 212.78125 504.671875 210.703125 508.984375 211.226562 C 508.984375 212.929688 508.984375 214.5625 508.984375 215.621094 C 506.039062 216.953125 502.953125 217.757812 500.703125 219.585938 C 499.335938 220.699219 499.257812 223.394531 498.582031 225.6875 Z M 498.582031 225.6875 "/><path style=" stroke:none;fill-rule:nonzero;fill:#0a0a0a;fill-opacity:1;" d="M 197.144531 236.195312 C 197.144531 227.910156 197.144531 219.957031 197.144531 211.777344 C 198.984375 211.777344 200.601562 211.777344 202.484375 211.777344 C 202.597656 212.933594 202.714844 214.113281 202.890625 215.863281 C 205.800781 212.871094 208.847656 210.609375 213.203125 211.265625 C 213.203125 213.003906 213.203125 214.640625 213.203125 216.5 C 212.433594 216.570312 211.691406 216.644531 210.949219 216.703125 C 205.746094 217.128906 202.96875 219.8125 202.820312 225.121094 C 202.640625 231.492188 202.777344 237.875 202.777344 244.476562 C 200.839844 244.476562 199.207031 244.476562 197.144531 244.476562 C 197.144531 241.84375 197.144531 239.1875 197.144531 236.195312 Z M 197.144531 236.195312 "/><path style=" stroke:none;fill-rule:nonzero;fill:#090909;fill-opacity:1;" d="M 367.765625 212.386719 C 367.769531 213.875 367.769531 215.09375 367.769531 216.503906 C 366.933594 216.578125 366.300781 216.648438 365.664062 216.691406 C 360.101562 217.074219 357.296875 219.824219 357.167969 225.46875 C 357.019531 231.730469 357.132812 238 357.132812 244.480469 C 355.238281 244.480469 353.605469 244.480469 351.769531 244.480469 C 351.769531 233.679688 351.769531 222.847656 351.769531 211.78125 C 353.378906 211.78125 354.992188 211.78125 356.886719 211.78125 C 356.984375 213.019531 357.089844 214.3125 357.183594 215.4375 C 359.320312 214.132812 361.410156 212.539062 363.761719 211.5625 C 364.832031 211.117188 366.414062 211.894531 367.765625 212.386719 Z M 367.765625 212.386719 "/><path style=" stroke:none;fill-rule:nonzero;fill:#f5f3f4;fill-opacity:1;" d="M 110.890625 130.472656 C 106.136719 130.488281 101.683594 130.488281 97.097656 130.488281 C 97.097656 125.695312 97.097656 121.152344 97.097656 116.320312 C 101.695312 116.320312 106.261719 116.144531 110.804688 116.371094 C 115.265625 116.59375 117.773438 119.265625 117.902344 123.332031 C 118.039062 127.609375 116.074219 129.699219 110.890625 130.472656 Z M 110.890625 130.472656 "/><path style=" stroke:none;fill-rule:nonzero;fill:#f2f2f2;fill-opacity:1;" d="M 98.601562 86.828125 C 102.609375 86.894531 106.324219 86.734375 109.988281 87.085938 C 114.304688 87.503906 116.257812 89.878906 116.226562 93.933594 C 116.195312 97.863281 114.035156 100.324219 109.753906 100.601562 C 105.640625 100.867188 101.5 100.660156 96.964844 100.660156 C 96.964844 96.371094 96.929688 92.164062 97.023438 87.960938 C 97.03125 87.578125 97.84375 87.207031 98.601562 86.828125 Z M 98.601562 86.828125 "/><path style=" stroke:none;fill-rule:nonzero;fill:#f5f3f4;fill-opacity:1;" d="M 682.195312 87.277344 C 682.195312 80.78125 682.195312 74.625 682.195312 68.207031 C 696.652344 68.207031 710.828125 68.207031 725.136719 68.207031 C 725.136719 128.492188 725.136719 188.625 725.136719 248.925781 C 710.851562 248.925781 696.742188 248.925781 682.195312 248.925781 C 682.195312 195.117188 682.195312 141.363281 682.195312 87.277344 Z M 682.195312 87.277344 "/><path style=" stroke:none;fill-rule:nonzero;fill:#f5f3f4;fill-opacity:1;" d="M 287.121094 88.140625 C 291.898438 90.269531 293.441406 93.308594 292.488281 98.253906 C 291.765625 101.992188 289.007812 104.011719 284.25 104.128906 C 280.882812 104.214844 277.511719 104.164062 274.144531 104.15625 C 273.832031 104.15625 273.523438 104.027344 273.09375 103.929688 C 273.09375 98.652344 273.09375 93.429688 273.09375 88.0625 C 277.734375 88.0625 282.289062 88.0625 287.121094 88.140625 Z M 287.121094 88.140625 "/><path style=" stroke:none;fill-rule:nonzero;fill:#f2f2f2;fill-opacity:1;" d="M 366.570312 118.101562 C 365.457031 125.957031 361.449219 129.921875 354.988281 129.847656 C 350.222656 129.792969 346.890625 127.460938 345.03125 123.183594 C 343.257812 119.113281 343.261719 114.894531 344.890625 110.757812 C 346.851562 105.773438 351.429688 103.304688 357.082031 104.0625 C 362.003906 104.714844 365.78125 108.867188 366.480469 114.453125 C 366.617188 115.558594 366.550781 116.6875 366.570312 118.101562 Z M 366.570312 118.101562 "/><path style=" stroke:none;fill-rule:nonzero;fill:#f5f4f4;fill-opacity:1;" d="M 544.296875 185.667969 C 544.296875 165.128906 544.296875 144.929688 544.296875 124.433594 C 558.609375 124.433594 572.785156 124.433594 587.1875 124.433594 C 587.1875 165.875 587.1875 207.332031 587.1875 248.941406 C 572.929688 248.941406 558.832031 248.941406 544.296875 248.941406 C 544.296875 227.890625 544.296875 206.945312 544.296875 185.667969 Z M 544.296875 185.667969 "/><path style=" stroke:none;fill-rule:nonzero;fill:#eaeaea;fill-opacity:1;" d="M 485.5 108.628906 C 486.058594 110.453125 485.292969 110.785156 483.878906 110.773438 C 478.1875 110.726562 472.492188 110.753906 466.789062 110.753906 C 467.175781 105.941406 470.089844 102.78125 474.601562 102.160156 C 479.820312 101.441406 483.707031 103.675781 485.5 108.628906 Z M 485.5 108.628906 "/><path style=" stroke:none;fill-rule:nonzero;fill:#f5f5f5;fill-opacity:1;" d="M 656.363281 225.429688 C 656.363281 233.382812 656.363281 241 656.363281 248.851562 C 642.015625 248.851562 627.839844 248.851562 613.453125 248.851562 C 613.453125 223.25 613.453125 197.613281 613.453125 171.746094 C 627.582031 171.746094 641.765625 171.746094 656.363281 171.746094 C 656.363281 189.503906 656.363281 207.296875 656.363281 225.429688 Z M 656.363281 225.429688 "/><path style=" stroke:none;fill-rule:nonzero;fill:#f2f2f2;fill-opacity:1;" d="M 418.511719 225.789062 C 420.375 218.570312 424.277344 215.476562 430.613281 215.925781 C 435.851562 216.296875 439.894531 220.359375 440.628906 225.992188 C 441.480469 232.484375 438.480469 237.917969 433.042969 239.742188 C 426.152344 242.054688 419.292969 237.523438 418.519531 230.101562 C 418.378906 228.773438 418.492188 227.421875 418.511719 225.789062 Z M 418.511719 225.789062 "/><path style=" stroke:none;fill-rule:nonzero;fill:#f2f2f2;fill-opacity:1;" d="M 382.566406 217.660156 C 387.992188 214.957031 392.910156 215.449219 396.425781 218.878906 C 399.917969 222.28125 400.980469 229.074219 398.78125 233.914062 C 396.816406 238.234375 392.554688 240.691406 387.601562 240.238281 C 383.457031 239.859375 380.417969 237.675781 378.832031 233.894531 C 376.800781 229.058594 377.050781 224.273438 380.195312 219.886719 C 380.769531 219.089844 381.632812 218.503906 382.566406 217.660156 Z M 382.566406 217.660156 "/><path style=" stroke:none;fill-rule:nonzero;fill:#f2f2f2;fill-opacity:1;" d="M 254.917969 224.480469 C 257.226562 216.539062 264.445312 213.371094 270.96875 217.203125 C 274.03125 219.003906 275.445312 221.757812 275.570312 225.597656 C 268.867188 225.597656 262.273438 225.609375 255.683594 225.5625 C 255.410156 225.5625 255.144531 225.035156 254.917969 224.480469 Z M 254.917969 224.480469 "/><path style=" stroke:none;fill-rule:nonzero;fill:#f2f2f2;fill-opacity:1;" d="M 477.683594 225.636719 C 471.441406 225.636719 465.519531 225.636719 459.59375 225.636719 C 459.769531 220.28125 463.007812 216.574219 467.820312 215.917969 C 473.507812 215.144531 478.351562 217.777344 479.585938 222.484375 C 479.921875 223.761719 480.972656 225.824219 477.683594 225.636719 Z M 477.683594 225.636719 "/><path style=" stroke:none;fill-rule:nonzero;fill:#f2f2f2;fill-opacity:1;" d="M 141.632812 237.753906 C 135.714844 241.539062 129.550781 240.960938 126.046875 236.484375 C 122.191406 231.5625 122.742188 222.609375 127.152344 218.546875 C 132.761719 213.375 142.382812 215.683594 144.800781 223 C 146.542969 228.28125 146.125 233.402344 141.632812 237.753906 Z M 141.632812 237.753906 "/></g></svg>