<svg xmlns="http://www.w3.org/2000/svg" xmlns:xlink="http://www.w3.org/1999/xlink" width="1080" zoomAndPan="magnify" viewBox="0 0 810 310.499991" height="414" preserveAspectRatio="xMidYMid meet" version="1.2"><defs><clipPath id="616e5abb41"><path d="M 0.652344 0 L 809.347656 0 L 809.347656 310 L 0.652344 310 Z M 0.652344 0 "/></clipPath></defs><g id="2d3e3cd43a"><g clip-rule="nonzero" clip-path="url(#616e5abb41)"><path style=" stroke:none;fill-rule:nonzero;fill:#ffffff;fill-opacity:1;" d="M 0.652344 0 L 809.347656 0 L 809.347656 310 L 0.652344 310 Z M 0.652344 0 "/><path style=" stroke:none;fill-rule:nonzero;fill:#ffffff;fill-opacity:1;" d="M 0.652344 0 L 809.347656 0 L 809.347656 310 L 0.652344 310 Z M 0.652344 0 "/><rect x="0" width="810" y="0" height="310.499991" style="fill:#ffffff;fill-opacity:1;stroke:none;"/><rect x="0" width="810" y="0" height="310.499991" style="fill:#ffffff;fill-opacity:1;stroke:none;"/><path style=" stroke:none;fill-rule:nonzero;fill:#f5f5f5;fill-opacity:1;" d="M 472.066406 581.46875 C 305.851562 581.46875 140 581.46875 -25.855469 581.46875 C -25.855469 293.488281 -25.855469 5.503906 -25.855469 -282.480469 C 261.960938 -282.480469 549.777344 -282.480469 837.589844 -282.480469 C 837.589844 5.503906 837.589844 293.488281 837.589844 581.46875 C 715.867188 581.46875 594.148438 581.46875 472.066406 581.46875 M 114.589844 142.105469 C 126.027344 134.3125 126.75 110.597656 107.40625 104.488281 C 107.871094 104.1875 108.242188 103.871094 108.667969 103.695312 C 117.128906 100.199219 120.898438 93.613281 120.734375 84.746094 C 120.558594 75.511719 115.988281 69.078125 107.308594 65.875 C 104.425781 64.8125 101.304688 63.917969 98.269531 63.839844 C 85.695312 63.511719 73.109375 63.515625 60.523438 63.40625 C 58.035156 63.386719 55.550781 63.402344 52.914062 63.402344 C 52.914062 91.660156 52.914062 119.523438 52.914062 147.5 C 53.542969 147.601562 54.003906 147.738281 54.460938 147.738281 C 67.886719 147.726562 81.308594 147.757812 94.734375 147.664062 C 101.640625 147.613281 108.351562 146.613281 114.589844 142.105469 M 691.960938 254.246094 C 691.960938 257.671875 691.960938 261.097656 691.960938 264.425781 C 713.722656 264.425781 734.992188 264.425781 756.207031 264.425781 C 756.207031 193.796875 756.207031 123.429688 756.207031 52.96875 C 734.773438 52.96875 713.507812 52.96875 691.960938 52.96875 C 691.960938 119.972656 691.960938 186.746094 691.960938 254.246094 M 240.808594 87.21875 C 240.808594 107.328125 240.808594 127.433594 240.808594 147.585938 C 248.8125 147.585938 256.328125 147.585938 264.253906 147.585938 C 264.253906 137.210938 264.253906 126.992188 264.253906 116.773438 C 264.609375 116.566406 264.960938 116.367188 265.3125 116.167969 C 266.207031 117.140625 267.339844 117.984375 267.957031 119.105469 C 272.734375 127.808594 277.375 136.589844 282.164062 145.289062 C 282.71875 146.289062 283.898438 147.617188 284.8125 147.636719 C 292.894531 147.820312 300.980469 147.746094 309.585938 147.746094 C 303.101562 136.492188 296.933594 125.78125 290.660156 114.898438 C 291.597656 114.546875 292.144531 114.351562 292.6875 114.140625 C 305.453125 109.078125 311.640625 96.925781 308.246094 83.585938 C 305.375 72.28125 295.992188 64.410156 283.332031 63.890625 C 269.449219 63.320312 255.535156 63.589844 241.628906 63.511719 C 241.441406 63.511719 241.25 63.75 240.808594 64.039062 C 240.808594 71.417969 240.808594 78.960938 240.808594 87.21875 M 134.691406 126.667969 C 137.132812 133.394531 140.96875 139.195312 147.203125 142.824219 C 160.570312 150.609375 174.476562 150.71875 188.007812 143.660156 C 200.59375 137.097656 205.054688 125.511719 205.085938 111.882812 C 205.121094 97.011719 205.09375 82.140625 205.09375 67.265625 C 205.09375 66.097656 205.09375 64.925781 205.09375 63.59375 C 197.191406 63.59375 189.582031 63.59375 181.601562 63.59375 C 181.601562 65.0625 181.601562 66.347656 181.601562 67.636719 C 181.570312 83.109375 181.703125 98.582031 181.445312 114.046875 C 181.308594 122.121094 176.519531 126.472656 168.726562 126.5 C 160.796875 126.523438 156.585938 122.417969 156.050781 114.117188 C 155.949219 112.566406 155.914062 111.003906 155.914062 109.445312 C 155.90625 95.414062 155.910156 81.378906 155.910156 67.351562 C 155.910156 66.09375 155.910156 64.835938 155.910156 63.601562 C 147.808594 63.601562 140.296875 63.601562 132.667969 63.601562 C 132.605469 64.371094 132.519531 64.949219 132.519531 65.53125 C 132.519531 81.480469 132.390625 97.433594 132.628906 113.378906 C 132.691406 117.632812 133.886719 121.867188 134.691406 126.667969 M 361.402344 86.429688 C 358.480469 84.636719 355.765625 82.222656 352.597656 81.152344 C 340 76.890625 326.519531 82.421875 320.414062 94.632812 C 313.964844 107.527344 314.042969 120.84375 320.449219 133.746094 C 324.929688 142.761719 332.609375 147.820312 342.757812 148.464844 C 351.167969 148.992188 358.425781 146.328125 364.132812 138.71875 C 364.132812 142.199219 364.132812 144.792969 364.132812 147.441406 C 372.066406 147.441406 379.761719 147.441406 387.296875 147.441406 C 387.296875 125.007812 387.296875 102.882812 387.296875 80.789062 C 379.46875 80.789062 371.949219 80.789062 364.046875 80.789062 C 364.046875 83.605469 364.046875 86.253906 364.046875 89.445312 C 362.992188 88.222656 362.382812 87.515625 361.402344 86.429688 M 601.914062 264.695312 C 604.179688 264.695312 606.441406 264.695312 608.804688 264.695312 C 608.804688 213.9375 608.804688 163.414062 608.804688 112.964844 C 587.28125 112.964844 566.027344 112.964844 544.898438 112.964844 C 544.898438 163.675781 544.898438 214.089844 544.898438 264.695312 C 563.835938 264.695312 582.519531 264.695312 601.914062 264.695312 M 510.234375 94.386719 C 501.1875 79.394531 480.390625 76.621094 466.085938 82.847656 C 451.246094 89.304688 444.097656 106.324219 448.519531 124.1875 C 452.332031 139.582031 466.265625 149.507812 482.671875 148.519531 C 498.929688 147.53125 511.871094 137.449219 513.425781 124.421875 C 505.863281 124.421875 498.316406 124.375 490.773438 124.476562 C 489.890625 124.488281 488.785156 125.082031 488.179688 125.757812 C 484.933594 129.40625 481.21875 130.625 477.023438 129.203125 C 473.179688 127.90625 471.019531 124.425781 470.867188 118.84375 C 485.53125 118.84375 500.195312 118.84375 514.925781 118.84375 C 515.808594 110.085938 514.835938 102.148438 510.234375 94.386719 M 648.710938 264.695312 C 660.035156 264.695312 671.363281 264.695312 682.554688 264.695312 C 682.554688 230.566406 682.554688 197.03125 682.554688 163.503906 C 661.019531 163.503906 639.746094 163.503906 618.398438 163.503906 C 618.398438 197.289062 618.398438 230.828125 618.398438 264.695312 C 628.382812 264.695312 638.191406 264.695312 648.710938 264.695312 M 412.71875 64.445312 C 410.117188 64.445312 407.507812 64.445312 404.550781 64.445312 C 404.550781 69.984375 404.550781 75.191406 404.550781 80.664062 C 401.730469 80.664062 399.261719 80.664062 396.625 80.664062 C 396.625 87.226562 396.625 93.523438 396.625 100.226562 C 399.261719 100.226562 401.820312 100.226562 404.582031 100.226562 C 404.582031 103.125 404.53125 105.628906 404.589844 108.128906 C 404.746094 114.953125 404.550781 121.808594 405.230469 128.582031 C 406.011719 136.328125 409.875 142.328125 417.40625 145.417969 C 424.835938 148.460938 432.578125 147.617188 440.253906 147.726562 C 440.253906 140.828125 440.253906 134.402344 440.253906 127.960938 C 439.722656 127.894531 439.382812 127.820312 439.035156 127.808594 C 428.179688 127.5625 428.179688 127.5625 428.179688 116.550781 C 428.179688 111.109375 428.179688 105.667969 428.179688 100.023438 C 432.515625 100.023438 436.324219 100.023438 440.199219 100.023438 C 440.199219 93.511719 440.199219 87.21875 440.199219 80.578125 C 436.148438 80.578125 432.265625 80.578125 428.082031 80.578125 C 428.082031 75.015625 428.082031 69.800781 428.082031 64.445312 C 422.988281 64.445312 418.210938 64.445312 412.71875 64.445312 M 323.28125 211.296875 C 325.382812 212.613281 328.238281 213.457031 329.425781 215.347656 C 331.839844 219.203125 334.972656 219.085938 338.589844 218.476562 C 335.082031 208.132812 322.914062 202.710938 311.34375 206.296875 C 299.492188 209.972656 293.054688 222.699219 296.726562 235.175781 C 300.15625 246.808594 312.226562 253.40625 324.332031 250.261719 C 334.746094 247.558594 342.175781 236.238281 339.90625 226.703125 C 332.011719 226.703125 324.148438 226.703125 316.265625 226.703125 C 316.265625 228.226562 316.265625 229.511719 316.265625 231.226562 C 322.199219 231.226562 328.003906 231.226562 333.820312 231.226562 C 333.289062 238.253906 329.179688 243.492188 323.222656 245.113281 C 316.007812 247.078125 308.433594 244.65625 304.8125 238.746094 C 300.578125 231.835938 300.480469 224.519531 304.773438 217.667969 C 308.910156 211.0625 315.398438 209.628906 323.28125 211.296875 M 443.214844 245.453125 C 443.214844 247.105469 443.214844 248.753906 443.214844 250.554688 C 445.339844 250.554688 447.09375 250.554688 449.011719 250.554688 C 449.011719 234.667969 449.011719 218.886719 449.011719 203.042969 C 447.121094 203.042969 445.371094 203.042969 443.273438 203.042969 C 443.273438 208.96875 443.273438 214.757812 443.273438 220.847656 C 434.609375 213.113281 424.203125 212.9375 417.882812 220.113281 C 411.371094 227.5 412.148438 240.734375 419.347656 247.230469 C 425.179688 252.496094 436.699219 253.167969 443.214844 245.453125 M 405.761719 216.5 C 403.945312 215.960938 402.121094 215.421875 400.054688 214.808594 C 399.816406 217.222656 399.65625 218.773438 399.472656 220.605469 C 391.316406 213.304688 381.492188 212.976562 375.003906 219.4375 C 368.398438 226.023438 368.105469 238.605469 374.390625 245.785156 C 380.707031 253.007812 389.933594 252.890625 399.578125 245.339844 C 399.71875 247.167969 399.855469 248.882812 399.980469 250.472656 C 402.082031 250.472656 403.828125 250.472656 405.773438 250.472656 C 405.773438 239.195312 405.773438 228.175781 405.761719 216.5 M 258.003906 235.183594 C 262.886719 235.183594 267.769531 235.183594 272.609375 235.183594 C 274.039062 224.316406 268.601562 216.234375 259.269531 215.007812 C 248.652344 213.609375 240.339844 219.359375 238.957031 229.066406 C 237.332031 240.441406 243.230469 249.679688 252.957031 250.996094 C 262.558594 252.296875 270.757812 247.472656 271.789062 239.898438 C 268.59375 239.324219 266.089844 239.59375 263.972656 242.867188 C 261.652344 246.457031 255.917969 247.164062 251.480469 245.308594 C 247.160156 243.503906 244.902344 239.980469 245.078125 235.183594 C 249.144531 235.183594 253.214844 235.183594 258.003906 235.183594 M 463.320312 237.28125 C 462.910156 235.828125 463.203125 235.03125 464.96875 235.15625 C 466.757812 235.28125 468.5625 235.1875 470.363281 235.1875 C 477.261719 235.1875 484.164062 235.1875 490.980469 235.1875 C 492.46875 224.445312 486.714844 216.117188 477.421875 214.992188 C 466.222656 213.632812 458 219.9375 457.015625 230.632812 C 455.996094 241.707031 462.558594 250.40625 472.441406 251.085938 C 481.90625 251.738281 489.601562 246.808594 489.964844 239.128906 C 487.746094 239.792969 484.8125 239.765625 483.902344 241.101562 C 480.882812 245.554688 476.894531 246.730469 472.070312 245.933594 C 467.539062 245.179688 464.589844 242.421875 463.320312 237.28125 M 90.691406 240.578125 C 91.078125 239.636719 91.464844 238.703125 91.90625 237.632812 C 88.269531 237.457031 85.378906 236.910156 82.941406 240.605469 C 79.59375 245.695312 73.953125 246.636719 68.179688 245.609375 C 61.492188 244.417969 57.238281 240.238281 55.640625 233.765625 C 53.847656 226.503906 54.757812 219.609375 60.589844 214.257812 C 66.863281 208.503906 78.0625 208.878906 82.75 215.492188 C 85.464844 219.320312 88.355469 218.898438 91.9375 218.4375 C 87.480469 208.367188 78.484375 203.757812 67.160156 205.574219 C 57.535156 207.117188 50.019531 215.238281 49.023438 225.175781 C 47.890625 236.378906 53.527344 246.070312 63.222656 249.605469 C 73.59375 253.390625 84.296875 250.007812 90.691406 240.578125 M 129.679688 220.300781 C 128.976562 219.648438 128.320312 218.9375 127.566406 218.355469 C 122 214.0625 113.070312 213.609375 106.878906 217.28125 C 100.863281 220.84375 97.65625 228.207031 98.742188 235.945312 C 99.792969 243.46875 104.535156 248.914062 111.585938 250.710938 C 119.105469 252.625 127.136719 249.679688 131.234375 243.503906 C 135.71875 236.75 135.230469 227.59375 129.679688 220.300781 M 141.710938 230.488281 C 141.734375 232.882812 141.664062 235.28125 141.78125 237.671875 C 142.175781 245.699219 147.667969 251.351562 155.660156 250.933594 C 159.625 250.730469 163.503906 248.78125 167.398438 247.625 C 167.460938 248.117188 167.625 249.367188 167.757812 250.441406 C 169.769531 250.441406 171.503906 250.441406 173.109375 250.441406 C 173.109375 238.613281 173.109375 227.0625 173.109375 215.5625 C 171.113281 215.5625 169.394531 215.5625 167.488281 215.5625 C 167.488281 218.453125 167.535156 221.070312 167.476562 223.691406 C 167.371094 228.480469 167.484375 233.292969 166.976562 238.035156 C 166.445312 243.019531 162.929688 245.804688 157.925781 245.980469 C 152.554688 246.167969 149.039062 243.710938 147.933594 238.710938 C 147.527344 236.867188 147.558594 234.910156 147.546875 233.003906 C 147.5 227.1875 147.53125 221.367188 147.53125 215.535156 C 145.335938 215.535156 143.609375 215.535156 141.9375 215.535156 C 141.832031 216 141.734375 216.234375 141.734375 216.46875 C 141.71875 220.902344 141.714844 225.335938 141.710938 230.488281 M 220.933594 236.074219 C 221.496094 236.269531 222.070312 236.449219 222.628906 236.664062 C 224.96875 237.539062 227.222656 238.570312 226.714844 241.679688 C 226.230469 244.644531 224.019531 245.71875 221.332031 246.050781 C 216.050781 246.710938 213.1875 245.117188 211.09375 240.367188 C 209.214844 240.367188 207.324219 240.367188 205.410156 240.367188 C 206.683594 248.628906 215.1875 253.210938 224.292969 250.667969 C 229.332031 249.261719 232.398438 245.847656 232.542969 241.480469 C 232.6875 236.960938 230.4375 234.125 225.078125 232.234375 C 221.8125 231.082031 218.472656 230.144531 215.242188 228.914062 C 213.082031 228.09375 211.175781 226.347656 212.144531 224.023438 C 212.847656 222.363281 214.835938 220.605469 216.585938 220.140625 C 221.59375 218.808594 223.96875 220.335938 226.898438 225.640625 C 228.714844 225.640625 230.472656 225.640625 232.269531 225.640625 C 231.921875 221.429688 230.140625 218.265625 226.519531 216.5 C 221.621094 214.113281 216.550781 214.105469 211.605469 216.40625 C 208.0625 218.054688 205.953125 220.894531 206 224.890625 C 206.042969 228.902344 208.226562 231.683594 211.875 233.140625 C 214.640625 234.246094 217.535156 235.019531 220.933594 236.074219 M 505.082031 230.078125 C 505.789062 227.957031 505.871094 225.078125 507.332031 223.890625 C 509.734375 221.9375 513.027344 221.078125 516.171875 219.652344 C 516.171875 218.523438 516.171875 216.777344 516.171875 214.957031 C 511.566406 214.398438 508.324219 216.621094 505.183594 220.023438 C 505.039062 218.175781 504.945312 216.925781 504.84375 215.597656 C 502.859375 215.597656 501.046875 215.597656 499.226562 215.597656 C 499.226562 227.375 499.226562 238.84375 499.226562 250.429688 C 501.21875 250.429688 503.039062 250.429688 505.050781 250.429688 C 505.050781 243.675781 505.050781 237.207031 505.082031 230.078125 M 183.222656 241.992188 C 183.222656 244.828125 183.222656 247.667969 183.222656 250.480469 C 185.425781 250.480469 187.167969 250.480469 189.238281 250.480469 C 189.238281 243.429688 189.089844 236.609375 189.28125 229.800781 C 189.441406 224.132812 192.40625 221.265625 197.960938 220.808594 C 198.753906 220.746094 199.546875 220.667969 200.367188 220.59375 C 200.367188 218.605469 200.367188 216.855469 200.367188 215 C 195.71875 214.300781 192.464844 216.714844 189.359375 219.910156 C 189.171875 218.042969 189.046875 216.78125 188.925781 215.546875 C 186.914062 215.546875 185.1875 215.546875 183.222656 215.546875 C 183.222656 224.285156 183.222656 232.78125 183.222656 241.992188 M 365.390625 215.910156 C 363.949219 215.671875 362.261719 214.839844 361.117188 215.316406 C 358.609375 216.359375 356.375 218.0625 354.09375 219.457031 C 353.996094 218.253906 353.882812 216.875 353.777344 215.550781 C 351.753906 215.550781 350.035156 215.550781 348.316406 215.550781 C 348.316406 227.375 348.316406 238.945312 348.316406 250.484375 C 350.273438 250.484375 352.019531 250.484375 354.042969 250.484375 C 354.042969 243.5625 353.921875 236.863281 354.078125 230.175781 C 354.214844 224.144531 357.210938 221.207031 363.148438 220.796875 C 363.828125 220.75 364.503906 220.675781 365.398438 220.597656 C 365.398438 219.089844 365.398438 217.789062 365.390625 215.910156 Z M 365.390625 215.910156 "/></g><path style=" stroke:none;fill-rule:nonzero;fill:#030303;fill-opacity:1;" d="M 114.367188 142.242188 C 108.351562 146.613281 101.640625 147.613281 94.734375 147.664062 C 81.308594 147.757812 67.886719 147.726562 54.460938 147.738281 C 54.003906 147.738281 53.542969 147.601562 52.914062 147.5 C 52.914062 119.523438 52.914062 91.660156 52.914062 63.402344 C 55.550781 63.402344 58.035156 63.386719 60.523438 63.40625 C 73.109375 63.515625 85.695312 63.511719 98.269531 63.839844 C 101.304688 63.917969 104.425781 64.8125 107.308594 65.875 C 115.988281 69.078125 120.558594 75.511719 120.734375 84.746094 C 120.898438 93.613281 117.128906 100.199219 108.667969 103.695312 C 108.242188 103.871094 107.871094 104.1875 107.40625 104.488281 C 126.75 110.597656 126.027344 134.3125 114.367188 142.242188 M 91.460938 128.675781 C 96.664062 127.859375 98.761719 125.628906 98.617188 121.058594 C 98.480469 116.714844 95.800781 113.859375 91.039062 113.621094 C 86.1875 113.378906 81.3125 113.566406 76.402344 113.566406 C 76.402344 118.730469 76.402344 123.582031 76.402344 128.703125 C 81.300781 128.703125 86.054688 128.703125 91.460938 128.675781 M 77.671875 82.0625 C 77.199219 82.464844 76.332031 82.863281 76.324219 83.269531 C 76.222656 87.761719 76.261719 92.253906 76.261719 96.835938 C 81.105469 96.835938 85.523438 97.058594 89.917969 96.773438 C 94.488281 96.476562 96.792969 93.847656 96.828125 89.652344 C 96.859375 85.320312 94.773438 82.78125 90.167969 82.335938 C 86.253906 81.960938 82.289062 82.132812 77.671875 82.0625 Z M 77.671875 82.0625 "/><path style=" stroke:none;fill-rule:nonzero;fill:#dc173e;fill-opacity:1;" d="M 691.960938 253.886719 C 691.960938 186.746094 691.960938 119.972656 691.960938 52.96875 C 713.507812 52.96875 734.773438 52.96875 756.207031 52.96875 C 756.207031 123.429688 756.207031 193.796875 756.207031 264.425781 C 734.992188 264.425781 713.722656 264.425781 691.960938 264.425781 C 691.960938 261.097656 691.960938 257.671875 691.960938 253.886719 M 701.109375 82.898438 C 701.109375 140.320312 701.109375 197.75 701.109375 255.234375 C 716.640625 255.234375 731.703125 255.234375 746.957031 255.234375 C 746.957031 190.8125 746.957031 126.570312 746.957031 62.167969 C 731.679688 62.167969 716.542969 62.167969 701.109375 62.167969 C 701.109375 69.023438 701.109375 75.601562 701.109375 82.898438 Z M 701.109375 82.898438 "/><path style=" stroke:none;fill-rule:nonzero;fill:#030303;fill-opacity:1;" d="M 240.808594 86.859375 C 240.808594 78.960938 240.808594 71.417969 240.808594 64.039062 C 241.25 63.75 241.441406 63.511719 241.628906 63.511719 C 255.535156 63.589844 269.449219 63.320312 283.332031 63.890625 C 295.992188 64.410156 305.375 72.28125 308.246094 83.585938 C 311.640625 96.925781 305.453125 109.078125 292.6875 114.140625 C 292.144531 114.351562 291.597656 114.546875 290.660156 114.898438 C 296.933594 125.78125 303.101562 136.492188 309.585938 147.746094 C 300.980469 147.746094 292.894531 147.820312 284.8125 147.636719 C 283.898438 147.617188 282.71875 146.289062 282.164062 145.289062 C 277.375 136.589844 272.734375 127.808594 267.957031 119.105469 C 267.339844 117.984375 266.207031 117.140625 265.3125 116.167969 C 264.960938 116.367188 264.609375 116.566406 264.253906 116.773438 C 264.253906 126.992188 264.253906 137.210938 264.253906 147.585938 C 256.328125 147.585938 248.8125 147.585938 240.808594 147.585938 C 240.808594 127.433594 240.808594 107.328125 240.808594 86.859375 M 279 83.378906 C 274.132812 83.378906 269.269531 83.378906 264.3125 83.378906 C 264.3125 89.113281 264.3125 94.691406 264.3125 100.332031 C 264.773438 100.433594 265.101562 100.574219 265.433594 100.574219 C 269.03125 100.582031 272.628906 100.636719 276.226562 100.542969 C 281.304688 100.417969 284.25 98.261719 285.019531 94.265625 C 286.039062 88.984375 284.390625 85.738281 279 83.378906 Z M 279 83.378906 "/><path style=" stroke:none;fill-rule:nonzero;fill:#040404;fill-opacity:1;" d="M 134.625 126.390625 C 133.886719 121.867188 132.691406 117.632812 132.628906 113.378906 C 132.390625 97.433594 132.519531 81.480469 132.519531 65.53125 C 132.519531 64.949219 132.605469 64.371094 132.667969 63.601562 C 140.296875 63.601562 147.808594 63.601562 155.910156 63.601562 C 155.910156 64.835938 155.910156 66.09375 155.910156 67.351562 C 155.910156 81.378906 155.90625 95.414062 155.914062 109.445312 C 155.914062 111.003906 155.949219 112.566406 156.050781 114.117188 C 156.585938 122.417969 160.796875 126.523438 168.726562 126.5 C 176.519531 126.472656 181.308594 122.121094 181.445312 114.046875 C 181.703125 98.582031 181.570312 83.109375 181.601562 67.636719 C 181.601562 66.347656 181.601562 65.0625 181.601562 63.59375 C 189.582031 63.59375 197.191406 63.59375 205.09375 63.59375 C 205.09375 64.925781 205.09375 66.097656 205.09375 67.265625 C 205.09375 82.140625 205.121094 97.011719 205.085938 111.882812 C 205.054688 125.511719 200.59375 137.097656 188.007812 143.660156 C 174.476562 150.71875 160.570312 150.609375 147.203125 142.824219 C 140.96875 139.195312 137.132812 133.394531 134.625 126.390625 Z M 134.625 126.390625 "/><path style=" stroke:none;fill-rule:nonzero;fill:#040404;fill-opacity:1;" d="M 361.589844 86.621094 C 362.382812 87.515625 362.992188 88.222656 364.046875 89.445312 C 364.046875 86.253906 364.046875 83.605469 364.046875 80.789062 C 371.949219 80.789062 379.46875 80.789062 387.296875 80.789062 C 387.296875 102.882812 387.296875 125.007812 387.296875 147.441406 C 379.761719 147.441406 372.066406 147.441406 364.132812 147.441406 C 364.132812 144.792969 364.132812 142.199219 364.132812 138.71875 C 358.425781 146.328125 351.167969 148.992188 342.757812 148.464844 C 332.609375 147.820312 324.929688 142.761719 320.449219 133.746094 C 314.042969 120.84375 313.964844 107.527344 320.414062 94.632812 C 326.519531 82.421875 340 76.890625 352.597656 81.152344 C 355.765625 82.222656 358.480469 84.636719 361.589844 86.621094 M 364.125 115.15625 C 364.097656 113.960938 364.167969 112.753906 364.023438 111.574219 C 363.273438 105.605469 359.242188 101.167969 353.988281 100.472656 C 347.953125 99.664062 343.0625 102.300781 340.96875 107.625 C 339.230469 112.042969 339.226562 116.550781 341.121094 120.898438 C 343.105469 125.46875 346.664062 127.960938 351.75 128.019531 C 358.648438 128.097656 362.929688 123.863281 364.125 115.15625 Z M 364.125 115.15625 "/><path style=" stroke:none;fill-rule:nonzero;fill:#dc183f;fill-opacity:1;" d="M 601.554688 264.695312 C 582.519531 264.695312 563.835938 264.695312 544.898438 264.695312 C 544.898438 214.089844 544.898438 163.675781 544.898438 112.964844 C 566.027344 112.964844 587.28125 112.964844 608.804688 112.964844 C 608.804688 163.414062 608.804688 213.9375 608.804688 264.695312 C 606.441406 264.695312 604.179688 264.695312 601.554688 264.695312 M 553.875 188.011719 C 553.875 210.386719 553.875 232.761719 553.875 255.25 C 569.394531 255.25 584.445312 255.25 599.667969 255.25 C 599.667969 210.796875 599.667969 166.507812 599.667969 122.234375 C 584.292969 122.234375 569.15625 122.234375 553.875 122.234375 C 553.875 144.132812 553.875 165.710938 553.875 188.011719 Z M 553.875 188.011719 "/><path style=" stroke:none;fill-rule:nonzero;fill:#030303;fill-opacity:1;" d="M 510.371094 94.613281 C 514.835938 102.148438 515.808594 110.085938 514.925781 118.84375 C 500.195312 118.84375 485.53125 118.84375 470.867188 118.84375 C 471.019531 124.425781 473.179688 127.90625 477.023438 129.203125 C 481.21875 130.625 484.933594 129.40625 488.179688 125.757812 C 488.785156 125.082031 489.890625 124.488281 490.773438 124.476562 C 498.316406 124.375 505.863281 124.421875 513.425781 124.421875 C 511.871094 137.449219 498.929688 147.53125 482.671875 148.519531 C 466.265625 149.507812 452.332031 139.582031 448.519531 124.1875 C 444.097656 106.324219 451.246094 89.304688 466.085938 82.847656 C 480.390625 76.621094 501.1875 79.394531 510.371094 94.613281 M 491.015625 105.078125 C 489.183594 100.058594 485.035156 97.671875 479.460938 98.441406 C 474.644531 99.101562 471.535156 102.480469 471.121094 107.621094 C 477.210938 107.621094 483.289062 107.589844 489.367188 107.640625 C 490.878906 107.652344 491.695312 107.300781 491.015625 105.078125 Z M 491.015625 105.078125 "/><path style=" stroke:none;fill-rule:nonzero;fill:#dc183f;fill-opacity:1;" d="M 648.351562 264.695312 C 638.191406 264.695312 628.382812 264.695312 618.398438 264.695312 C 618.398438 230.828125 618.398438 197.289062 618.398438 163.503906 C 639.746094 163.503906 661.019531 163.503906 682.554688 163.503906 C 682.554688 197.03125 682.554688 230.566406 682.554688 264.695312 C 671.363281 264.695312 660.035156 264.695312 648.351562 264.695312 M 673.527344 229.769531 C 673.527344 210.761719 673.527344 191.75 673.527344 172.78125 C 657.941406 172.78125 642.796875 172.78125 627.714844 172.78125 C 627.714844 200.414062 627.714844 227.804688 627.714844 255.15625 C 643.074219 255.15625 658.210938 255.15625 673.527344 255.15625 C 673.527344 246.765625 673.527344 238.628906 673.527344 229.769531 Z M 673.527344 229.769531 "/><path style=" stroke:none;fill-rule:nonzero;fill:#020202;fill-opacity:1;" d="M 413.078125 64.445312 C 418.210938 64.445312 422.988281 64.445312 428.082031 64.445312 C 428.082031 69.800781 428.082031 75.015625 428.082031 80.578125 C 432.265625 80.578125 436.148438 80.578125 440.199219 80.578125 C 440.199219 87.21875 440.199219 93.511719 440.199219 100.023438 C 436.324219 100.023438 432.515625 100.023438 428.179688 100.023438 C 428.179688 105.667969 428.179688 111.109375 428.179688 116.550781 C 428.179688 127.5625 428.179688 127.5625 439.035156 127.808594 C 439.382812 127.820312 439.722656 127.894531 440.253906 127.960938 C 440.253906 134.402344 440.253906 140.828125 440.253906 147.726562 C 432.578125 147.617188 424.835938 148.460938 417.40625 145.417969 C 409.875 142.328125 406.011719 136.328125 405.230469 128.582031 C 404.550781 121.808594 404.746094 114.953125 404.589844 108.128906 C 404.53125 105.628906 404.582031 103.125 404.582031 100.226562 C 401.820312 100.226562 399.261719 100.226562 396.625 100.226562 C 396.625 93.523438 396.625 87.226562 396.625 80.664062 C 399.261719 80.664062 401.730469 80.664062 404.550781 80.664062 C 404.550781 75.191406 404.550781 69.984375 404.550781 64.445312 C 407.507812 64.445312 410.117188 64.445312 413.078125 64.445312 Z M 413.078125 64.445312 "/><path style=" stroke:none;fill-rule:nonzero;fill:#070707;fill-opacity:1;" d="M 323.007812 211.195312 C 315.398438 209.628906 308.910156 211.0625 304.773438 217.667969 C 300.480469 224.519531 300.578125 231.835938 304.8125 238.746094 C 308.433594 244.65625 316.007812 247.078125 323.222656 245.113281 C 329.179688 243.492188 333.289062 238.253906 333.820312 231.226562 C 328.003906 231.226562 322.199219 231.226562 316.265625 231.226562 C 316.265625 229.511719 316.265625 228.226562 316.265625 226.703125 C 324.148438 226.703125 332.011719 226.703125 339.90625 226.703125 C 342.175781 236.238281 334.746094 247.558594 324.332031 250.261719 C 312.226562 253.40625 300.15625 246.808594 296.726562 235.175781 C 293.054688 222.699219 299.492188 209.972656 311.34375 206.296875 C 322.914062 202.710938 335.082031 208.132812 338.589844 218.476562 C 334.972656 219.085938 331.839844 219.203125 329.425781 215.347656 C 328.238281 213.457031 325.382812 212.613281 323.007812 211.195312 Z M 323.007812 211.195312 "/><path style=" stroke:none;fill-rule:nonzero;fill:#060606;fill-opacity:1;" d="M 442.949219 245.3125 C 436.699219 253.167969 425.179688 252.496094 419.347656 247.230469 C 412.148438 240.734375 411.371094 227.5 417.882812 220.113281 C 424.203125 212.9375 434.609375 213.113281 443.273438 220.847656 C 443.273438 214.757812 443.273438 208.96875 443.273438 203.042969 C 445.371094 203.042969 447.121094 203.042969 449.011719 203.042969 C 449.011719 218.886719 449.011719 234.667969 449.011719 250.554688 C 447.09375 250.554688 445.339844 250.554688 443.214844 250.554688 C 443.214844 248.753906 443.214844 247.105469 442.949219 245.3125 M 419.550781 230.824219 C 419.554688 232.261719 419.433594 233.703125 419.582031 235.125 C 420.410156 243.050781 427.734375 247.894531 435.089844 245.421875 C 440.894531 243.472656 444.097656 237.667969 443.191406 230.734375 C 442.40625 224.714844 438.089844 220.375 432.496094 219.980469 C 425.730469 219.5 421.566406 222.804688 419.550781 230.824219 Z M 419.550781 230.824219 "/><path style=" stroke:none;fill-rule:nonzero;fill:#0a0a0a;fill-opacity:1;" d="M 405.769531 216.824219 C 405.773438 228.175781 405.773438 239.195312 405.773438 250.472656 C 403.828125 250.472656 402.082031 250.472656 399.980469 250.472656 C 399.855469 248.882812 399.71875 247.167969 399.578125 245.339844 C 389.933594 252.890625 380.707031 253.007812 374.390625 245.785156 C 368.105469 238.605469 368.398438 226.023438 375.003906 219.4375 C 381.492188 212.976562 391.316406 213.304688 399.472656 220.605469 C 399.65625 218.773438 399.816406 217.222656 400.054688 214.808594 C 402.121094 215.421875 403.945312 215.960938 405.769531 216.824219 M 380.984375 222 C 380.199219 222.734375 379.277344 223.359375 378.664062 224.210938 C 375.308594 228.898438 375.039062 234.007812 377.210938 239.175781 C 378.902344 243.214844 382.148438 245.546875 386.574219 245.953125 C 391.859375 246.4375 396.410156 243.8125 398.507812 239.195312 C 400.855469 234.027344 399.722656 226.769531 395.996094 223.132812 C 392.242188 219.46875 386.988281 218.945312 380.984375 222 Z M 380.984375 222 "/><path style=" stroke:none;fill-rule:nonzero;fill:#090909;fill-opacity:1;" d="M 257.644531 235.183594 C 253.214844 235.183594 249.144531 235.183594 245.078125 235.183594 C 244.902344 239.980469 247.160156 243.503906 251.480469 245.308594 C 255.917969 247.164062 261.652344 246.457031 263.972656 242.867188 C 266.089844 239.59375 268.59375 239.324219 271.789062 239.902344 C 270.757812 247.472656 262.558594 252.296875 252.957031 250.996094 C 243.230469 249.679688 237.332031 240.441406 238.957031 229.066406 C 240.339844 219.359375 248.652344 213.609375 259.269531 215.007812 C 268.601562 216.234375 274.039062 224.316406 272.609375 235.183594 C 267.769531 235.183594 262.886719 235.183594 257.644531 235.183594 M 244.859375 229.414062 C 245.148438 229.710938 245.433594 230.273438 245.722656 230.273438 C 252.761719 230.324219 259.800781 230.3125 266.957031 230.3125 C 266.824219 226.210938 265.3125 223.265625 262.042969 221.34375 C 255.078125 217.25 247.371094 220.632812 244.859375 229.414062 Z M 244.859375 229.414062 "/><path style=" stroke:none;fill-rule:nonzero;fill:#0a0a0a;fill-opacity:1;" d="M 463.367188 237.589844 C 464.589844 242.421875 467.539062 245.179688 472.070312 245.933594 C 476.894531 246.730469 480.882812 245.554688 483.902344 241.101562 C 484.8125 239.765625 487.746094 239.792969 489.964844 239.128906 C 489.601562 246.808594 481.90625 251.738281 472.441406 251.085938 C 462.558594 250.40625 455.996094 241.707031 457.015625 230.632812 C 458 219.9375 466.222656 213.632812 477.421875 214.992188 C 486.714844 216.117188 492.46875 224.445312 490.980469 235.1875 C 484.164062 235.1875 477.261719 235.1875 470.363281 235.1875 C 468.5625 235.1875 466.757812 235.28125 464.96875 235.15625 C 463.203125 235.03125 462.910156 235.828125 463.367188 237.589844 M 483.097656 230.351562 C 486.265625 230.554688 485.144531 228.351562 484.785156 226.984375 C 483.464844 221.957031 478.292969 219.144531 472.222656 219.96875 C 467.082031 220.671875 463.625 224.632812 463.4375 230.351562 C 469.765625 230.351562 476.089844 230.351562 483.097656 230.351562 Z M 483.097656 230.351562 "/><path style=" stroke:none;fill-rule:nonzero;fill:#090909;fill-opacity:1;" d="M 90.558594 240.796875 C 84.296875 250.007812 73.59375 253.390625 63.222656 249.605469 C 53.527344 246.070312 47.890625 236.378906 49.023438 225.175781 C 50.019531 215.238281 57.535156 207.117188 67.160156 205.574219 C 78.484375 203.757812 87.480469 208.367188 91.9375 218.4375 C 88.355469 218.898438 85.464844 219.320312 82.75 215.492188 C 78.0625 208.878906 66.863281 208.503906 60.589844 214.257812 C 54.757812 219.609375 53.847656 226.503906 55.640625 233.765625 C 57.238281 240.238281 61.492188 244.417969 68.179688 245.609375 C 73.953125 246.636719 79.59375 245.695312 82.941406 240.605469 C 85.378906 236.910156 88.269531 237.457031 91.90625 237.632812 C 91.464844 238.703125 91.078125 239.636719 90.558594 240.796875 Z M 90.558594 240.796875 "/><path style=" stroke:none;fill-rule:nonzero;fill:#070707;fill-opacity:1;" d="M 129.851562 220.488281 C 135.230469 227.59375 135.71875 236.75 131.234375 243.503906 C 127.136719 249.679688 119.105469 252.625 111.585938 250.710938 C 104.535156 248.914062 99.792969 243.46875 98.742188 235.945312 C 97.65625 228.207031 100.863281 220.84375 106.878906 217.28125 C 113.070312 213.609375 122 214.0625 127.566406 218.355469 C 128.320312 218.9375 128.976562 219.648438 129.851562 220.488281 M 124.148438 243.113281 C 128.75 238.648438 129.195312 233.179688 127.335938 227.535156 C 124.753906 219.71875 114.480469 217.253906 108.492188 222.777344 C 103.785156 227.117188 103.195312 236.683594 107.3125 241.941406 C 111.054688 246.726562 117.632812 247.34375 124.148438 243.113281 Z M 124.148438 243.113281 "/><path style=" stroke:none;fill-rule:nonzero;fill:#090909;fill-opacity:1;" d="M 141.710938 230.128906 C 141.714844 225.335938 141.71875 220.902344 141.734375 216.46875 C 141.734375 216.234375 141.832031 216 141.9375 215.535156 C 143.609375 215.535156 145.335938 215.535156 147.53125 215.535156 C 147.53125 221.367188 147.5 227.1875 147.546875 233.003906 C 147.558594 234.910156 147.527344 236.867188 147.933594 238.710938 C 149.039062 243.710938 152.554688 246.167969 157.925781 245.980469 C 162.929688 245.804688 166.445312 243.019531 166.976562 238.035156 C 167.484375 233.292969 167.371094 228.480469 167.476562 223.691406 C 167.535156 221.070312 167.488281 218.453125 167.488281 215.5625 C 169.394531 215.5625 171.113281 215.5625 173.109375 215.5625 C 173.109375 227.0625 173.109375 238.613281 173.109375 250.441406 C 171.503906 250.441406 169.769531 250.441406 167.757812 250.441406 C 167.625 249.367188 167.460938 248.117188 167.398438 247.625 C 163.503906 248.78125 159.625 250.730469 155.660156 250.933594 C 147.667969 251.351562 142.175781 245.699219 141.78125 237.671875 C 141.664062 235.28125 141.734375 232.882812 141.710938 230.128906 Z M 141.710938 230.128906 "/><path style=" stroke:none;fill-rule:nonzero;fill:#090909;fill-opacity:1;" d="M 220.65625 236.007812 C 217.535156 235.019531 214.640625 234.246094 211.875 233.140625 C 208.226562 231.683594 206.042969 228.902344 206 224.890625 C 205.953125 220.894531 208.0625 218.054688 211.605469 216.40625 C 216.550781 214.105469 221.621094 214.113281 226.519531 216.5 C 230.140625 218.265625 231.921875 221.429688 232.269531 225.640625 C 230.472656 225.640625 228.714844 225.640625 226.898438 225.640625 C 223.96875 220.335938 221.59375 218.808594 216.585938 220.140625 C 214.835938 220.605469 212.847656 222.363281 212.144531 224.023438 C 211.175781 226.347656 213.082031 228.09375 215.242188 228.914062 C 218.472656 230.144531 221.8125 231.082031 225.078125 232.234375 C 230.4375 234.125 232.6875 236.960938 232.542969 241.480469 C 232.398438 245.847656 229.332031 249.261719 224.292969 250.667969 C 215.1875 253.210938 206.683594 248.628906 205.410156 240.367188 C 207.324219 240.367188 209.214844 240.367188 211.09375 240.367188 C 213.1875 245.117188 216.050781 246.710938 221.332031 246.050781 C 224.019531 245.71875 226.230469 244.644531 226.714844 241.679688 C 227.222656 238.570312 224.96875 237.539062 222.628906 236.664062 C 222.070312 236.449219 221.496094 236.269531 220.65625 236.007812 Z M 220.65625 236.007812 "/><path style=" stroke:none;fill-rule:nonzero;fill:#0a0a0a;fill-opacity:1;" d="M 505.066406 230.40625 C 505.050781 237.207031 505.050781 243.675781 505.050781 250.429688 C 503.039062 250.429688 501.21875 250.429688 499.226562 250.429688 C 499.226562 238.84375 499.226562 227.375 499.226562 215.597656 C 501.046875 215.597656 502.859375 215.597656 504.84375 215.597656 C 504.945312 216.925781 505.039062 218.175781 505.183594 220.023438 C 508.324219 216.621094 511.566406 214.398438 516.171875 214.957031 C 516.171875 216.777344 516.171875 218.523438 516.171875 219.652344 C 513.027344 221.078125 509.734375 221.9375 507.332031 223.890625 C 505.871094 225.078125 505.789062 227.957031 505.066406 230.40625 Z M 505.066406 230.40625 "/><path style=" stroke:none;fill-rule:nonzero;fill:#0a0a0a;fill-opacity:1;" d="M 183.222656 241.632812 C 183.222656 232.78125 183.222656 224.285156 183.222656 215.546875 C 185.1875 215.546875 186.914062 215.546875 188.925781 215.546875 C 189.046875 216.78125 189.171875 218.042969 189.359375 219.910156 C 192.464844 216.714844 195.71875 214.300781 200.367188 215 C 200.367188 216.855469 200.367188 218.605469 200.367188 220.59375 C 199.546875 220.667969 198.753906 220.746094 197.960938 220.808594 C 192.40625 221.265625 189.441406 224.132812 189.28125 229.800781 C 189.089844 236.609375 189.238281 243.429688 189.238281 250.480469 C 187.167969 250.480469 185.425781 250.480469 183.222656 250.480469 C 183.222656 247.667969 183.222656 244.828125 183.222656 241.632812 Z M 183.222656 241.632812 "/><path style=" stroke:none;fill-rule:nonzero;fill:#090909;fill-opacity:1;" d="M 365.394531 216.199219 C 365.398438 217.789062 365.398438 219.089844 365.398438 220.597656 C 364.503906 220.675781 363.828125 220.75 363.148438 220.796875 C 357.210938 221.207031 354.214844 224.144531 354.078125 230.175781 C 353.921875 236.863281 354.042969 243.5625 354.042969 250.484375 C 352.019531 250.484375 350.273438 250.484375 348.316406 250.484375 C 348.316406 238.945312 348.316406 227.375 348.316406 215.550781 C 350.035156 215.550781 351.753906 215.550781 353.777344 215.550781 C 353.882812 216.875 353.996094 218.253906 354.09375 219.457031 C 356.375 218.0625 358.609375 216.359375 361.117188 215.316406 C 362.261719 214.839844 363.949219 215.671875 365.394531 216.199219 Z M 365.394531 216.199219 "/><path style=" stroke:none;fill-rule:nonzero;fill:#f5f3f4;fill-opacity:1;" d="M 91.128906 128.6875 C 86.054688 128.703125 81.300781 128.703125 76.402344 128.703125 C 76.402344 123.582031 76.402344 118.730469 76.402344 113.566406 C 81.3125 113.566406 86.1875 113.378906 91.039062 113.621094 C 95.800781 113.859375 98.480469 116.714844 98.617188 121.058594 C 98.761719 125.628906 96.664062 127.859375 91.128906 128.6875 Z M 91.128906 128.6875 "/><path style=" stroke:none;fill-rule:nonzero;fill:#f2f2f2;fill-opacity:1;" d="M 78.007812 82.058594 C 82.289062 82.132812 86.253906 81.960938 90.167969 82.335938 C 94.773438 82.78125 96.859375 85.320312 96.828125 89.652344 C 96.792969 93.847656 94.488281 96.476562 89.917969 96.773438 C 85.523438 97.058594 81.105469 96.835938 76.261719 96.835938 C 76.261719 92.253906 76.222656 87.761719 76.324219 83.269531 C 76.332031 82.863281 77.199219 82.464844 78.007812 82.058594 Z M 78.007812 82.058594 "/><path style=" stroke:none;fill-rule:nonzero;fill:#f5f3f4;fill-opacity:1;" d="M 701.109375 82.539062 C 701.109375 75.601562 701.109375 69.023438 701.109375 62.167969 C 716.542969 62.167969 731.679688 62.167969 746.957031 62.167969 C 746.957031 126.570312 746.957031 190.8125 746.957031 255.234375 C 731.703125 255.234375 716.640625 255.234375 701.109375 255.234375 C 701.109375 197.75 701.109375 140.320312 701.109375 82.539062 Z M 701.109375 82.539062 "/><path style=" stroke:none;fill-rule:nonzero;fill:#f5f3f4;fill-opacity:1;" d="M 279.289062 83.460938 C 284.390625 85.738281 286.039062 88.984375 285.019531 94.265625 C 284.25 98.261719 281.304688 100.417969 276.226562 100.542969 C 272.628906 100.636719 269.03125 100.582031 265.433594 100.574219 C 265.101562 100.574219 264.773438 100.433594 264.3125 100.332031 C 264.3125 94.691406 264.3125 89.113281 264.3125 83.378906 C 269.269531 83.378906 274.132812 83.378906 279.289062 83.460938 Z M 279.289062 83.460938 "/><path style=" stroke:none;fill-rule:nonzero;fill:#f2f2f2;fill-opacity:1;" d="M 364.117188 115.46875 C 362.929688 123.863281 358.648438 128.097656 351.75 128.019531 C 346.664062 127.960938 343.105469 125.46875 341.121094 120.898438 C 339.226562 116.550781 339.230469 112.042969 340.96875 107.625 C 343.0625 102.300781 347.953125 99.664062 353.988281 100.472656 C 359.242188 101.167969 363.273438 105.605469 364.023438 111.574219 C 364.167969 112.753906 364.097656 113.960938 364.117188 115.46875 Z M 364.117188 115.46875 "/><path style=" stroke:none;fill-rule:nonzero;fill:#f5f4f4;fill-opacity:1;" d="M 553.875 187.652344 C 553.875 165.710938 553.875 144.132812 553.875 122.234375 C 569.15625 122.234375 584.292969 122.234375 599.667969 122.234375 C 599.667969 166.507812 599.667969 210.796875 599.667969 255.25 C 584.445312 255.25 569.394531 255.25 553.875 255.25 C 553.875 232.761719 553.875 210.386719 553.875 187.652344 Z M 553.875 187.652344 "/><path style=" stroke:none;fill-rule:nonzero;fill:#eaeaea;fill-opacity:1;" d="M 491.097656 105.351562 C 491.695312 107.300781 490.878906 107.652344 489.367188 107.640625 C 483.289062 107.589844 477.210938 107.621094 471.121094 107.621094 C 471.535156 102.480469 474.644531 99.101562 479.460938 98.441406 C 485.035156 97.671875 489.183594 100.058594 491.097656 105.351562 Z M 491.097656 105.351562 "/><path style=" stroke:none;fill-rule:nonzero;fill:#f5f5f5;fill-opacity:1;" d="M 673.527344 230.132812 C 673.527344 238.628906 673.527344 246.765625 673.527344 255.15625 C 658.210938 255.15625 643.074219 255.15625 627.714844 255.15625 C 627.714844 227.804688 627.714844 200.414062 627.714844 172.78125 C 642.796875 172.78125 657.941406 172.78125 673.527344 172.78125 C 673.527344 191.75 673.527344 210.761719 673.527344 230.132812 Z M 673.527344 230.132812 "/><path style=" stroke:none;fill-rule:nonzero;fill:#f2f2f2;fill-opacity:1;" d="M 419.574219 230.515625 C 421.566406 222.804688 425.730469 219.5 432.496094 219.980469 C 438.089844 220.375 442.40625 224.714844 443.191406 230.734375 C 444.097656 237.667969 440.894531 243.472656 435.089844 245.421875 C 427.734375 247.894531 420.410156 243.050781 419.582031 235.125 C 419.433594 233.703125 419.554688 232.261719 419.574219 230.515625 Z M 419.574219 230.515625 "/><path style=" stroke:none;fill-rule:nonzero;fill:#f2f2f2;fill-opacity:1;" d="M 381.195312 221.832031 C 386.988281 218.945312 392.242188 219.46875 395.996094 223.132812 C 399.722656 226.769531 400.855469 234.027344 398.507812 239.195312 C 396.410156 243.8125 391.859375 246.4375 386.574219 245.953125 C 382.148438 245.546875 378.902344 243.214844 377.210938 239.175781 C 375.039062 234.007812 375.308594 228.898438 378.664062 224.210938 C 379.277344 223.359375 380.199219 222.734375 381.195312 221.832031 Z M 381.195312 221.832031 "/><path style=" stroke:none;fill-rule:nonzero;fill:#f2f2f2;fill-opacity:1;" d="M 244.90625 229.117188 C 247.371094 220.632812 255.078125 217.25 262.042969 221.34375 C 265.3125 223.265625 266.824219 226.210938 266.957031 230.3125 C 259.800781 230.3125 252.761719 230.324219 245.722656 230.273438 C 245.433594 230.273438 245.148438 229.710938 244.90625 229.117188 Z M 244.90625 229.117188 "/><path style=" stroke:none;fill-rule:nonzero;fill:#f2f2f2;fill-opacity:1;" d="M 482.753906 230.351562 C 476.089844 230.351562 469.765625 230.351562 463.4375 230.351562 C 463.625 224.632812 467.082031 220.671875 472.222656 219.96875 C 478.292969 219.144531 483.464844 221.957031 484.785156 226.984375 C 485.144531 228.351562 486.265625 230.554688 482.753906 230.351562 Z M 482.753906 230.351562 "/><path style=" stroke:none;fill-rule:nonzero;fill:#f2f2f2;fill-opacity:1;" d="M 123.953125 243.296875 C 117.632812 247.34375 111.054688 246.726562 107.3125 241.941406 C 103.195312 236.683594 103.785156 227.117188 108.492188 222.777344 C 114.480469 217.253906 124.753906 219.71875 127.335938 227.535156 C 129.195312 233.179688 128.75 238.648438 123.953125 243.296875 Z M 123.953125 243.296875 "/></g></svg>